<svg xmlns="http://www.w3.org/2000/svg" xmlns:xlink="http://www.w3.org/1999/xlink" viewBox="0 0 50 44"><defs><style>.cls-1{fill:url(#未命名的渐变_123);}.cls-2{fill:url(#未命名的渐变_123-2);}.cls-3{fill:url(#未命名的渐变_95);}.cls-4{fill:url(#未命名的渐变_95-2);}.cls-5{fill:url(#未命名的渐变_169);}.cls-6{fill:url(#未命名的渐变_95-3);}.cls-7{fill:url(#未命名的渐变_95-4);}.cls-8{fill:url(#未命名的渐变_95-5);}.cls-9{fill:url(#未命名的渐变_95-6);}.cls-10{fill:none;}</style><linearGradient id="未命名的渐变_123" x1="10.54" y1="5.85" x2="38.08" y2="21.75" gradientUnits="userSpaceOnUse"><stop offset="0" stop-color="#cb00e9"/><stop offset="1" stop-color="#1149ae"/></linearGradient><linearGradient id="未命名的渐变_123-2" x1="11.92" y1="21.79" x2="39.46" y2="37.68" xlink:href="#未命名的渐变_123"/><linearGradient id="未命名的渐变_95" x1="8.87" y1="11.31" x2="10.93" y2="12.5" gradientUnits="userSpaceOnUse"><stop offset="0" stop-color="#fff" stop-opacity="0.4"/><stop offset="1" stop-color="#fff" stop-opacity="0"/></linearGradient><linearGradient id="未命名的渐变_95-2" x1="8.83" y1="28.69" x2="13.29" y2="31.26" xlink:href="#未命名的渐变_95"/><linearGradient id="未命名的渐变_169" x1="19.61" y1="17.73" x2="30.7" y2="24.13" gradientUnits="userSpaceOnUse"><stop offset="0" stop-color="#ffaf1b"/><stop offset="1" stop-color="#ff664b"/></linearGradient><linearGradient id="未命名的渐变_95-3" x1="20.48" y1="18.55" x2="23.48" y2="20.28" xlink:href="#未命名的渐变_95"/><linearGradient id="未命名的渐变_95-4" x1="20.48" y1="22.98" x2="23.48" y2="24.71" xlink:href="#未命名的渐变_95"/><linearGradient id="未命名的渐变_95-5" x1="92.83" y1="28.79" x2="95.78" y2="30.5" gradientTransform="translate(-71.07 -0.51) scale(1 0.58)" xlink:href="#未命名的渐变_95"/><linearGradient id="未命名的渐变_95-6" x1="83.86" y1="-230.47" x2="86.81" y2="-228.76" gradientTransform="translate(-58.44 149.13) scale(1 0.58)" xlink:href="#未命名的渐变_95"/></defs><title>交易记录-new</title><g id="图层_2" data-name="图层 2"><g id="图层_1-2" data-name="图层 1"><path class="cls-1" d="M13.89,10.42A7.42,7.42,0,0,1,16.72,10H30.91a8.38,8.38,0,0,1,8.16,6.26,1.13,1.13,0,0,0,1.06.83,1.25,1.25,0,0,0,1.18-1.42,10.77,10.77,0,0,0-10.4-8H16.72a11.94,11.94,0,0,0-5,1.18l.12.12L9.75,7.23l-1.3,9.1L17,12.9Z"/><path class="cls-2" d="M41.55,27.21,33,30.63,36.11,33a5.86,5.86,0,0,1-2.83.59H19.09a8.38,8.38,0,0,1-8.16-6.27,1.13,1.13,0,0,0-1.06-.82,1.25,1.25,0,0,0-1.18,1.42,10.76,10.76,0,0,0,10.4,8H33.28a11.79,11.79,0,0,0,5-1.18l-.12-.12,2.13,1.66,1.3-9.1Z"/><polygon class="cls-3" points="10.16 9.08 9.5 14.66 11.95 10.74 10.16 9.08"/><path class="cls-4" d="M9.31,28.08a20.18,20.18,0,0,0,2.51,4.13c.28.35,1.39.13.88-.62a15.65,15.65,0,0,1-2.35-3.73C10.15,27.36,9.22,27.45,9.31,28.08Z"/><path class="cls-5" d="M29.36,23.13H26.09V21h3.27a1.09,1.09,0,0,0,0-2.18H27.07l2-2a1.05,1.05,0,0,0,0-1.53,1,1,0,0,0-1.52,0l-2.18,2.18a1,1,0,0,0-.14.16h-.27a1,1,0,0,0-.14-.16L22.6,15.28a1.05,1.05,0,0,0-1.53,0,1.07,1.07,0,0,0,0,1.53l2,2h-2.4a1.09,1.09,0,0,0,0,2.18h3.27v2.18H20.64a1.09,1.09,0,0,0,0,2.18h3.27v2.18a1.09,1.09,0,0,0,2.18,0V25.31h3.27a1.09,1.09,0,0,0,0-2.18Z"/><rect class="cls-6" x="20.05" y="19.06" width="3.86" height="0.71" rx="0.32"/><rect class="cls-7" x="20.05" y="23.49" width="3.86" height="0.71" rx="0.32"/><rect class="cls-8" x="21.36" y="16.39" width="3.75" height="0.41" rx="0.18" transform="translate(18.54 -11.57) rotate(45)"/><rect class="cls-9" x="25.02" y="16.39" width="3.75" height="0.41" rx="0.18" transform="translate(57.65 9.31) rotate(135)"/><rect class="cls-10" width="50" height="44"/></g></g></svg>