<svg xmlns="http://www.w3.org/2000/svg" xmlns:xlink="http://www.w3.org/1999/xlink" viewBox="0 0 33.1 29.08"><defs><style>.cls-1{fill:url(#未命名的渐变_123);}.cls-2{fill:url(#未命名的渐变_123-2);}.cls-3{fill:url(#未命名的渐变_95);}.cls-4{fill:url(#未命名的渐变_95-2);}.cls-5{fill:url(#未命名的渐变_169);}.cls-6{fill:url(#未命名的渐变_95-3);}.cls-7{fill:url(#未命名的渐变_95-4);}.cls-8{fill:url(#未命名的渐变_95-5);}.cls-9{fill:url(#未命名的渐变_95-6);}</style><linearGradient id="未命名的渐变_123" x1="2.09" y1="-1.37" x2="29.63" y2="14.52" gradientUnits="userSpaceOnUse"><stop offset="0" stop-color="#cb00e9"/><stop offset="1" stop-color="#1149ae"/></linearGradient><linearGradient id="未命名的渐变_123-2" x1="3.47" y1="14.56" x2="31.01" y2="30.46" xlink:href="#未命名的渐变_123"/><linearGradient id="未命名的渐变_95" x1="0.42" y1="4.08" x2="2.48" y2="5.27" gradientUnits="userSpaceOnUse"><stop offset="0" stop-color="#fff" stop-opacity="0.4"/><stop offset="1" stop-color="#fff" stop-opacity="0"/></linearGradient><linearGradient id="未命名的渐变_95-2" x1="0.38" y1="21.46" x2="4.84" y2="24.03" xlink:href="#未命名的渐变_95"/><linearGradient id="未命名的渐变_169" x1="11.16" y1="10.5" x2="22.25" y2="16.9" gradientUnits="userSpaceOnUse"><stop offset="0" stop-color="#ffaf1b"/><stop offset="1" stop-color="#ff664b"/></linearGradient><linearGradient id="未命名的渐变_95-3" x1="12.03" y1="11.32" x2="15.03" y2="13.06" xlink:href="#未命名的渐变_95"/><linearGradient id="未命名的渐变_95-4" x1="12.03" y1="15.75" x2="15.03" y2="17.48" xlink:href="#未命名的渐变_95"/><linearGradient id="未命名的渐变_95-5" x1="84.91" y1="23.81" x2="87.87" y2="25.51" gradientTransform="translate(-71.6 -4.86) scale(1 0.58)" xlink:href="#未命名的渐变_95"/><linearGradient id="未命名的渐变_95-6" x1="78.53" y1="-235.45" x2="81.49" y2="-233.75" gradientTransform="translate(-61.57 144.78) scale(1 0.58)" xlink:href="#未命名的渐变_95"/></defs><title>交易记录</title><g id="图层_2" data-name="图层 2"><g id="图层_1-2" data-name="图层 1"><path class="cls-1" d="M5.44,3.19a7.64,7.64,0,0,1,2.84-.47H22.46A8.38,8.38,0,0,1,30.62,9a1.13,1.13,0,0,0,1.06.83,1.25,1.25,0,0,0,1.18-1.42,10.77,10.77,0,0,0-10.4-8H8.28a11.8,11.8,0,0,0-5,1.19l.12.12L1.3,0,0,9.1,8.51,5.67Z"/><path class="cls-2" d="M33.1,20l-8.51,3.43,3.07,2.36a5.84,5.84,0,0,1-2.83.59H10.64A8.38,8.38,0,0,1,2.48,20.1a1.13,1.13,0,0,0-1.06-.83A1.25,1.25,0,0,0,.24,20.69a10.77,10.77,0,0,0,10.4,8H24.83a11.79,11.79,0,0,0,5-1.19l-.12-.11,2.13,1.65L33.1,20Z"/><polygon class="cls-3" points="1.71 1.85 1.05 7.43 3.5 3.51 1.71 1.85"/><path class="cls-4" d="M.86,20.85A20.66,20.66,0,0,0,3.37,25c.28.34,1.39.12.88-.63A15.43,15.43,0,0,1,1.9,20.63C1.7,20.13.77,20.22.86,20.85Z"/><path class="cls-5" d="M20.91,15.9H17.64V13.72h3.27A1,1,0,0,0,22,12.63a1,1,0,0,0-1.09-1.09H18.62l2-2a1.08,1.08,0,0,0-1.53-1.53l-2.18,2.18a1,1,0,0,0-.14.17h-.27a1,1,0,0,0-.14-.17L14.15,8.05a1.08,1.08,0,0,0-1.53,1.53l2,2h-2.4a1,1,0,0,0-1.09,1.09,1,1,0,0,0,1.09,1.09h3.27V15.9H12.19a1.09,1.09,0,1,0,0,2.18h3.27v2.19a1.09,1.09,0,0,0,2.18,0V18.08h3.27a1.09,1.09,0,1,0,0-2.18Z"/><rect class="cls-6" x="11.6" y="11.83" width="3.86" height="0.71" rx="0.32"/><rect class="cls-7" x="11.6" y="16.26" width="3.86" height="0.71" rx="0.32"/><rect class="cls-8" x="12.91" y="9.16" width="3.75" height="0.41" rx="0.18" transform="translate(10.96 -7.71) rotate(45)"/><rect class="cls-9" x="16.57" y="9.16" width="3.75" height="0.41" rx="0.18" transform="translate(38.11 2.95) rotate(135)"/></g></g></svg>