<svg xmlns="http://www.w3.org/2000/svg" xmlns:xlink="http://www.w3.org/1999/xlink" viewBox="0 0 50 44"><defs><style>.cls-1{fill:url(#未命名的渐变_123);}.cls-2{fill:url(#未命名的渐变_123-2);}.cls-3{fill:url(#未命名的渐变_95);}.cls-4{fill:url(#未命名的渐变_95-2);}.cls-5{fill:url(#未命名的渐变_169);}.cls-6{fill:url(#未命名的渐变_95-3);}.cls-7{fill:url(#未命名的渐变_95-4);}.cls-8{fill:url(#未命名的渐变_169-2);}.cls-9{fill:url(#未命名的渐变_95-5);}.cls-10{fill:url(#未命名的渐变_95-6);}.cls-11{fill:none;}</style><linearGradient id="未命名的渐变_123" x1="11.49" y1="5.14" x2="37.17" y2="19.97" gradientUnits="userSpaceOnUse"><stop offset="0" stop-color="#cb00e9"/><stop offset="1" stop-color="#1149ae"/></linearGradient><linearGradient id="未命名的渐变_123-2" x1="7.52" y1="15.76" x2="40.3" y2="34.69" xlink:href="#未命名的渐变_123"/><linearGradient id="未命名的渐变_95" x1="5.95" y1="17.69" x2="13.31" y2="21.94" gradientUnits="userSpaceOnUse"><stop offset="0" stop-color="#fff" stop-opacity="0.4"/><stop offset="1" stop-color="#fff" stop-opacity="0"/></linearGradient><linearGradient id="未命名的渐变_95-2" x1="6.1" y1="11.21" x2="23.05" y2="11.21" xlink:href="#未命名的渐变_95"/><linearGradient id="未命名的渐变_169" x1="-36.49" y1="-11.81" x2="-34.01" y2="-2.55" gradientTransform="translate(72.32 11.03) rotate(-45)" gradientUnits="userSpaceOnUse"><stop offset="0" stop-color="#ffaf1b"/><stop offset="1" stop-color="#ff664b"/></linearGradient><linearGradient id="未命名的渐变_95-3" x1="41.54" y1="27.58" x2="42.54" y2="28.16" xlink:href="#未命名的渐变_95"/><linearGradient id="未命名的渐变_95-4" x1="38.47" y1="29.89" x2="41.22" y2="31.48" xlink:href="#未命名的渐变_95"/><linearGradient id="未命名的渐变_169-2" x1="-40.57" y1="-47.77" x2="-38.52" y2="-40.13" xlink:href="#未命名的渐变_169"/><linearGradient id="未命名的渐变_95-5" x1="12.64" y1="5.19" x2="13.46" y2="5.67" xlink:href="#未命名的渐变_95"/><linearGradient id="未命名的渐变_95-6" x1="10.1" y1="7.1" x2="12.37" y2="8.41" xlink:href="#未命名的渐变_95"/></defs><title>充值-new</title><g id="图层_2" data-name="图层 2"><g id="图层_1-2" data-name="图层 1"><path class="cls-1" d="M38.14,9.15H8.93a4.17,4.17,0,0,0-4.17,4.13H42.32A4.17,4.17,0,0,0,38.14,9.15Z"/><path class="cls-2" d="M4.76,32.94a4.17,4.17,0,0,0,4.17,4.17H38.14a4.18,4.18,0,0,0,4.18-4.17V14.67H4.76Zm13.13-3.89a.87.87,0,0,1,.88-.88h3.85V26.46H18.77a.87.87,0,0,1-.88-.88V25.5a.87.87,0,0,1,.88-.88h3.8l-4.22-4.11a.89.89,0,0,1,0-1.26A.92.92,0,0,1,19,19a.94.94,0,0,1,.64.26l3.93,3.88,3.91-3.87a.93.93,0,0,1,.63-.25.91.91,0,0,1,.63.25.87.87,0,0,1,0,1.26l-4.15,4.09H28.3a.89.89,0,0,1,.89.89v.07a.89.89,0,0,1-.89.89H24.45v1.71h3.86a.88.88,0,0,1,.88.88v.1a.89.89,0,0,1-.88.88H24.46v3.21a.89.89,0,0,1-.88.88h-.09a.88.88,0,0,1-.87-.88V30H18.77a.88.88,0,0,1-.88-.88Z"/><path class="cls-3" d="M6.1,26V18a2.27,2.27,0,0,1,2.27-2.27h8.51Z"/><path class="cls-4" d="M6.1,12.2a3.47,3.47,0,0,1,3.18-2H23.05l-2,2Z"/><polygon class="cls-5" points="40.36 28.92 42.31 25.35 44.27 28.92 47.85 30.88 44.27 32.84 42.31 36.41 40.36 32.84 36.78 30.88 40.36 28.92"/><polygon class="cls-6" points="42.13 26.56 41.14 28.63 41.95 29.18 42.13 26.56"/><polygon class="cls-7" points="37.61 30.88 40.29 29.46 41.82 30.68 37.61 30.88"/><polygon class="cls-8" points="11.66 6.3 13.28 3.35 14.89 6.3 17.84 7.91 14.89 9.53 13.28 12.48 11.66 9.53 8.71 7.91 11.66 6.3"/><polygon class="cls-9" points="13.13 4.34 12.3 6.06 12.97 6.51 13.13 4.34"/><polygon class="cls-10" points="9.39 7.91 11.61 6.74 12.87 7.75 9.39 7.91"/><rect class="cls-11" width="50" height="44"/></g></g></svg>