<svg xmlns="http://www.w3.org/2000/svg" xmlns:xlink="http://www.w3.org/1999/xlink" viewBox="0 0 43.09 33.76"><defs><style>.cls-1{fill:url(#未命名的渐变_123);}.cls-2{fill:url(#未命名的渐变_123-2);}.cls-3{fill:url(#未命名的渐变_95);}.cls-4{fill:url(#未命名的渐变_95-2);}.cls-5{fill:url(#未命名的渐变_169);}.cls-6{fill:url(#未命名的渐变_95-3);}.cls-7{fill:url(#未命名的渐变_95-4);}.cls-8{fill:url(#未命名的渐变_169-2);}.cls-9{fill:url(#未命名的渐变_95-5);}.cls-10{fill:url(#未命名的渐变_95-6);}</style><linearGradient id="未命名的渐变_123" x1="6.73" y1="1.79" x2="32.41" y2="16.62" gradientUnits="userSpaceOnUse"><stop offset="0" stop-color="#cb00e9"/><stop offset="1" stop-color="#1149ae"/></linearGradient><linearGradient id="未命名的渐变_123-2" x1="2.76" y1="12.42" x2="35.55" y2="31.34" xlink:href="#未命名的渐变_123"/><linearGradient id="未命名的渐变_95" x1="1.19" y1="14.35" x2="8.55" y2="18.6" gradientUnits="userSpaceOnUse"><stop offset="0" stop-color="#fff" stop-opacity="0.4"/><stop offset="1" stop-color="#fff" stop-opacity="0"/></linearGradient><linearGradient id="未命名的渐变_95-2" x1="1.34" y1="7.87" x2="18.29" y2="7.87" xlink:href="#未命名的渐变_95"/><linearGradient id="未命名的渐变_169" x1="-41.25" y1="-15.15" x2="-38.77" y2="-5.89" gradientTransform="translate(73.29 6.69) rotate(-45)" gradientUnits="userSpaceOnUse"><stop offset="0" stop-color="#ffaf1b"/><stop offset="1" stop-color="#ff664b"/></linearGradient><linearGradient id="未命名的渐变_95-3" x1="36.78" y1="24.24" x2="37.78" y2="24.81" xlink:href="#未命名的渐变_95"/><linearGradient id="未命名的渐变_95-4" x1="33.71" y1="26.55" x2="36.46" y2="28.14" xlink:href="#未命名的渐变_95"/><linearGradient id="未命名的渐变_169-2" x1="-45.33" y1="-51.12" x2="-43.28" y2="-43.47" xlink:href="#未命名的渐变_169"/><linearGradient id="未命名的渐变_95-5" x1="7.88" y1="1.84" x2="8.7" y2="2.32" xlink:href="#未命名的渐变_95"/><linearGradient id="未命名的渐变_95-6" x1="5.34" y1="3.75" x2="7.61" y2="5.06" xlink:href="#未命名的渐变_95"/></defs><title>充值</title><g id="图层_2" data-name="图层 2"><g id="图层_1-2" data-name="图层 1"><path class="cls-1" d="M33.38,5.8H4.17A4.17,4.17,0,0,0,0,9.94H37.56A4.18,4.18,0,0,0,33.38,5.8Z"/><path class="cls-2" d="M0,29.59a4.17,4.17,0,0,0,4.17,4.17H33.38a4.17,4.17,0,0,0,4.18-4.17V11.33H0Zm13.13-3.88a.87.87,0,0,1,.88-.88h3.85V23.12H14a.88.88,0,0,1-.88-.89v-.07a.88.88,0,0,1,.88-.89h3.8l-4.22-4.1a.89.89,0,0,1,.63-1.52.9.9,0,0,1,.64.26l3.93,3.87,3.91-3.86a.89.89,0,0,1,.63-.26.88.88,0,0,1,.63.26.86.86,0,0,1,0,1.25l-4.15,4.1h3.74a.88.88,0,0,1,.88.88v.08a.88.88,0,0,1-.88.88H19.7v1.71h3.85a.89.89,0,0,1,.88.88v.1a.88.88,0,0,1-.88.88H19.7V29.9a.88.88,0,0,1-.88.87h-.09a.87.87,0,0,1-.87-.87V26.68H14a.87.87,0,0,1-.88-.88Z"/><path class="cls-3" d="M1.34,22.69v-8a2.27,2.27,0,0,1,2.27-2.27h8.51Z"/><path class="cls-4" d="M1.34,8.85a3.48,3.48,0,0,1,3.18-2H18.29l-2,2Z"/><polygon class="cls-5" points="35.6 25.58 37.56 22 39.51 25.58 43.09 27.54 39.51 29.49 37.56 33.07 35.6 29.49 32.02 27.54 35.6 25.58"/><polygon class="cls-6" points="37.38 23.21 36.38 25.29 37.19 25.84 37.38 23.21"/><polygon class="cls-7" points="32.85 27.54 35.53 26.11 37.06 27.33 32.85 27.54"/><polygon class="cls-8" points="6.9 2.95 8.52 0 10.13 2.95 13.09 4.57 10.13 6.18 8.52 9.14 6.9 6.18 3.95 4.57 6.9 2.95"/><polygon class="cls-9" points="8.37 1 7.54 2.71 8.22 3.17 8.37 1"/><polygon class="cls-10" points="4.63 4.57 6.85 3.4 8.11 4.4 4.63 4.57"/></g></g></svg>