<svg xmlns="http://www.w3.org/2000/svg" xmlns:xlink="http://www.w3.org/1999/xlink" viewBox="0 0 16 16"><defs><style>.cls-1{fill:url(#未命名的渐变_401);}</style><linearGradient id="未命名的渐变_401" y1="8" x2="16" y2="8" gradientUnits="userSpaceOnUse"><stop offset="0" stop-color="#c55eff"/><stop offset="1" stop-color="#fe32ad"/></linearGradient></defs><title>客服</title><g id="图层_2" data-name="图层 2"><g id="图层_1-2" data-name="图层 1"><path class="cls-1" d="M16,6.4V9.6a1.6,1.6,0,0,1-1.6,1.6v.1c0,.14-.46,3.26-5,3.81a1.59,1.59,0,1,1-.1-1.6c2.91-.4,3.4-2.08,3.46-2.38V6.4A4.82,4.82,0,0,0,11.46,3,4.75,4.75,0,0,0,8,1.6,4.79,4.79,0,0,0,4.53,3,4.82,4.82,0,0,0,3.2,6.4v4.8H1.6A1.6,1.6,0,0,1,0,9.6V6.4A1.6,1.6,0,0,1,1.6,4.8h.19A6.23,6.23,0,0,1,8,0a6.23,6.23,0,0,1,6.21,4.8h.19A1.6,1.6,0,0,1,16,6.4Z"/></g></g></svg>