<svg xmlns="http://www.w3.org/2000/svg" xmlns:xlink="http://www.w3.org/1999/xlink" viewBox="0 0 30.26 31.78"><defs><style>.cls-1{fill:url(#未命名的渐变_123);}.cls-2{fill:url(#未命名的渐变_123-2);}.cls-3{fill:url(#未命名的渐变_169);}.cls-4{fill:url(#未命名的渐变_95);}.cls-5{fill:url(#未命名的渐变_95-2);}.cls-6{fill:url(#未命名的渐变_95-3);}.cls-7{fill:url(#未命名的渐变_95-4);}.cls-8{fill:url(#未命名的渐变_95-5);}</style><linearGradient id="未命名的渐变_123" x1="-2.08" y1="7.57" x2="26.75" y2="24.22" gradientUnits="userSpaceOnUse"><stop offset="0" stop-color="#cb00e9"/><stop offset="1" stop-color="#1149ae"/></linearGradient><linearGradient id="未命名的渐变_123-2" x1="9.92" y1="-0.66" x2="17.99" y2="3.99" xlink:href="#未命名的渐变_123"/><linearGradient id="未命名的渐变_169" x1="21.44" y1="24.74" x2="29.61" y2="29.46" gradientUnits="userSpaceOnUse"><stop offset="0" stop-color="#ffaf1b"/><stop offset="1" stop-color="#ff664b"/></linearGradient><linearGradient id="未命名的渐变_95" x1="26.01" y1="27.38" x2="26.7" y2="27.38" gradientUnits="userSpaceOnUse"><stop offset="0" stop-color="#fff" stop-opacity="0.4"/><stop offset="1" stop-color="#fff" stop-opacity="0"/></linearGradient><linearGradient id="未命名的渐变_95-2" x1="21.25" y1="25.23" x2="26.7" y2="25.23" xlink:href="#未命名的渐变_95"/><linearGradient id="未命名的渐变_95-3" x1="26.42" y1="26.09" x2="26.7" y2="26.09" xlink:href="#未命名的渐变_95"/><linearGradient id="未命名的渐变_95-4" x1="1.12" y1="7.03" x2="10.17" y2="12.26" xlink:href="#未命名的渐变_95"/><linearGradient id="未命名的渐变_95-5" x1="10.64" y1="-0.56" x2="15.08" y2="2" xlink:href="#未命名的渐变_95"/></defs><title>投注记录</title><g id="图层_2" data-name="图层 2"><g id="图层_1-2" data-name="图层 1"><path class="cls-1" d="M24.32,1.78H21a3.31,3.31,0,0,1,0,.55c0,1.4-1,2.78-2.15,2.78H8.82c-1.23,0-2.21-1.38-2.21-2.78a2.57,2.57,0,0,1,.06-.55H3.33C.66,1.78,0,3.34,0,5.61V28c0,2.43.94,3.78,3.54,3.78H21a6.34,6.34,0,0,1-1.4-4,6.11,6.11,0,0,1,6-6.21A5.79,5.79,0,0,1,28,22.1V5.61C28,3.34,26.79,1.78,24.32,1.78ZM13.45,25.06H6.92c-.54,0-.87-.58-.87-1.13a1.07,1.07,0,0,1,1-1.09h6.49a1.1,1.1,0,0,1,1,1.09A1.21,1.21,0,0,1,13.45,25.06Zm7.71-6.18H6.85a1.29,1.29,0,0,1-1-1.22,1,1,0,0,1,1-1H21a1,1,0,0,1,1,1C22.05,18.21,21.69,18.88,21.16,18.88Zm.06-6.37H6.92c-.54,0-.87-.59-.87-1.14a1.09,1.09,0,0,1,1-1.09H21.28a1.13,1.13,0,0,1,1,1.09A1.23,1.23,0,0,1,21.22,12.51Z"/><path class="cls-2" d="M10.33,3.33h7.3a1.57,1.57,0,0,0,1.42-1.67A1.57,1.57,0,0,0,17.59,0H10.33A1.57,1.57,0,0,0,8.87,1.66,1.57,1.57,0,0,0,10.33,3.33Z"/><path class="cls-3" d="M25.53,22.42a4.68,4.68,0,1,0,4.73,4.68A4.7,4.7,0,0,0,25.53,22.42ZM28,28.91H26v1.78l-.26,0h-.53l-.26,0V28.91H23.08a1.33,1.33,0,0,1,0-.39,1.41,1.41,0,0,1,0-.2.63.63,0,0,1,0-.19H25v-1H23.08a1.29,1.29,0,0,1,0-.38,1.48,1.48,0,0,1,0-.21,1.08,1.08,0,0,1,0-.19h1.47L23.29,24a1.36,1.36,0,0,1,.29,0h.6l.28,0,1.06,2.07,1-2.07a1.24,1.24,0,0,1,.27,0h.57l.27,0-1.24,2.32H28a1.86,1.86,0,0,1,0,.36,2.42,2.42,0,0,1,0,.42H26v1h2a1.94,1.94,0,0,1,0,.36A2.5,2.5,0,0,1,28,28.91Z"/><rect class="cls-4" x="26.01" y="27.13" width="0.69" height="0.49"/><path class="cls-5" d="M25,27.13H23.08a1.29,1.29,0,0,1,0-.38,1.48,1.48,0,0,1,0-.21,1.08,1.08,0,0,1,0-.19h1.47L23.29,24a1.36,1.36,0,0,1,.29,0h.6l.28,0,1.06,2.07,1-2.07.15,0V22.93a4.43,4.43,0,0,0-.9-.09,4.65,4.65,0,0,0-4.55,4.75v0H25Z"/><polygon class="cls-6" points="26.42 26.35 26.7 26.35 26.7 25.83 26.42 26.35"/><path class="cls-7" d="M6.05,11.37a1.09,1.09,0,0,1,1-1.09H8.87L14.3,5.11H8.82A2.27,2.27,0,0,1,6.88,3.59H4.81a3,3,0,0,0-3,3V17l4.77-4.55A1.17,1.17,0,0,1,6.05,11.37Z"/><rect class="cls-8" x="9.97" y="0.32" width="5.78" height="0.8" rx="0.38"/></g></g></svg>