<svg xmlns="http://www.w3.org/2000/svg" xmlns:xlink="http://www.w3.org/1999/xlink" viewBox="0 0 50 44"><defs><style>.cls-1{fill:url(#未命名的渐变_123);}.cls-2{fill:url(#未命名的渐变_123-2);}.cls-3{fill:url(#未命名的渐变_169);}.cls-4{fill:url(#未命名的渐变_95);}.cls-5{fill:url(#未命名的渐变_95-2);}.cls-6{fill:url(#未命名的渐变_95-3);}.cls-7{fill:url(#未命名的渐变_95-4);}.cls-8{fill:url(#未命名的渐变_95-5);}.cls-9{fill:none;}</style><linearGradient id="未命名的渐变_123" x1="10.5" y1="13.13" x2="39.33" y2="29.78" gradientUnits="userSpaceOnUse"><stop offset="0" stop-color="#cb00e9"/><stop offset="1" stop-color="#1149ae"/></linearGradient><linearGradient id="未命名的渐变_123-2" x1="22.51" y1="4.9" x2="30.58" y2="9.56" xlink:href="#未命名的渐变_123"/><linearGradient id="未命名的渐变_169" x1="34.02" y1="30.31" x2="42.19" y2="35.02" gradientUnits="userSpaceOnUse"><stop offset="0" stop-color="#ffaf1b"/><stop offset="1" stop-color="#ff664b"/></linearGradient><linearGradient id="未命名的渐变_95" x1="38.59" y1="32.94" x2="39.28" y2="32.94" gradientUnits="userSpaceOnUse"><stop offset="0" stop-color="#fff" stop-opacity="0.4"/><stop offset="1" stop-color="#fff" stop-opacity="0"/></linearGradient><linearGradient id="未命名的渐变_95-2" x1="33.83" y1="30.79" x2="39.28" y2="30.79" xlink:href="#未命名的渐变_95"/><linearGradient id="未命名的渐变_95-3" x1="39" y1="31.65" x2="39.28" y2="31.65" xlink:href="#未命名的渐变_95"/><linearGradient id="未命名的渐变_95-4" x1="13.7" y1="12.59" x2="22.76" y2="17.82" xlink:href="#未命名的渐变_95"/><linearGradient id="未命名的渐变_95-5" x1="23.22" y1="5" x2="27.66" y2="7.57" xlink:href="#未命名的渐变_95"/></defs><title>投注记录-new</title><g id="图层_2" data-name="图层 2"><g id="图层_1-2" data-name="图层 1"><path class="cls-1" d="M36.9,7.34H33.61a3.31,3.31,0,0,1,0,.55c0,1.41-1,2.78-2.15,2.78H21.41c-1.23,0-2.22-1.37-2.22-2.78a2.57,2.57,0,0,1,.06-.55H15.91c-2.67,0-3.33,1.56-3.33,3.83V33.56c0,2.43.94,3.78,3.54,3.78H33.54a6.33,6.33,0,0,1-1.39-4,6.11,6.11,0,0,1,6-6.21,5.79,5.79,0,0,1,2.39.51V11.17C40.55,8.9,39.37,7.34,36.9,7.34ZM26,30.62H19.5c-.53,0-.87-.58-.87-1.13a1.08,1.08,0,0,1,1-1.09h6.5a1.12,1.12,0,0,1,1,1.09A1.22,1.22,0,0,1,26,30.62Zm7.71-6.18H19.44a1.28,1.28,0,0,1-1.06-1.21,1,1,0,0,1,1-1H33.62a1,1,0,0,1,1,1C34.63,23.77,34.27,24.44,33.74,24.44Zm.06-6.37H19.5c-.53,0-.87-.59-.87-1.13a1.08,1.08,0,0,1,1-1.09H33.87a1.12,1.12,0,0,1,1,1.09A1.22,1.22,0,0,1,33.8,18.07Z"/><path class="cls-2" d="M22.91,8.89h7.3a1.56,1.56,0,0,0,1.42-1.66,1.57,1.57,0,0,0-1.46-1.67H22.91a1.57,1.57,0,0,0-1.46,1.67A1.57,1.57,0,0,0,22.91,8.89Z"/><path class="cls-3" d="M38.11,28a4.68,4.68,0,1,0,4.73,4.68A4.71,4.71,0,0,0,38.11,28Zm2.46,6.49h-2v1.78a1.09,1.09,0,0,1-.26,0h-.53a2.3,2.3,0,0,1-.26,0V34.47H35.66a1.76,1.76,0,0,1,0-.38,1.48,1.48,0,0,1,0-.21l0-.19h1.89v-1H35.66a1.76,1.76,0,0,1,0-.38,1.48,1.48,0,0,1,0-.21l0-.19h1.48l-1.27-2.32a1.39,1.39,0,0,1,.3,0h.6l.27,0,1.06,2.07,1-2.07a1.33,1.33,0,0,1,.28,0H40l.27,0L39,31.91h1.56a2,2,0,0,1,0,.36,2.42,2.42,0,0,1,0,.42h-2v1h2a1.94,1.94,0,0,1,0,.36A2.42,2.42,0,0,1,40.57,34.47Z"/><rect class="cls-4" x="38.59" y="32.69" width="0.69" height="0.49"/><path class="cls-5" d="M37.55,32.69H35.66a1.29,1.29,0,0,1,0-.38,1.48,1.48,0,0,1,0-.21l0-.19h1.48l-1.27-2.32a1.39,1.39,0,0,1,.3,0h.6l.27,0,1.06,2.07,1-2.07.15,0V28.49a4.43,4.43,0,0,0-.9-.09,4.66,4.66,0,0,0-4.55,4.75v0h3.72Z"/><polygon class="cls-6" points="39 31.91 39.28 31.91 39.28 31.39 39 31.91"/><path class="cls-7" d="M18.63,16.94a1.08,1.08,0,0,1,1-1.09h1.85l5.43-5.18H21.41a2.24,2.24,0,0,1-1.94-1.52H17.39a3,3,0,0,0-3,3V22.54L19.2,18A1.17,1.17,0,0,1,18.63,16.94Z"/><rect class="cls-8" x="22.55" y="5.88" width="5.78" height="0.8" rx="0.38"/><rect class="cls-9" width="50" height="44"/></g></g></svg>