<svg xmlns="http://www.w3.org/2000/svg" viewBox="0 0 32 32"><defs><style>.cls-1{fill:none;}.cls-2{fill:#ff32ae;}</style></defs><title>提款密码</title><g id="图层_2" data-name="图层 2"><g id="图层_1-2" data-name="图层 1"><rect class="cls-1" width="32" height="32"/><path class="cls-2" d="M23.85,13.24v-.79A8.1,8.1,0,0,0,16,4.13a8.1,8.1,0,0,0-7.85,8.32v.79H6.9a1,1,0,0,0-1,1V26.91a1,1,0,0,0,1,1H25.1a1,1,0,0,0,1-1V14.2a1,1,0,0,0-1-1Zm-13.78-.79A6.14,6.14,0,0,1,16,6.14a6.14,6.14,0,0,1,5.93,6.31v.79H10.07ZM16.91,23.3a.91.91,0,1,1-1.82,0V17.81a.91.91,0,1,1,1.82,0Z"/></g></g></svg>