<svg xmlns="http://www.w3.org/2000/svg" xmlns:xlink="http://www.w3.org/1999/xlink" viewBox="0 0 50 44"><defs><style>.cls-1{fill:url(#未命名的渐变_123);}.cls-2{fill:url(#未命名的渐变_169);}.cls-3{fill:url(#未命名的渐变_123-2);}.cls-4{fill:url(#未命名的渐变_95);}.cls-5{fill:url(#未命名的渐变_169-2);}.cls-6{fill:url(#未命名的渐变_95-2);}.cls-7{fill:url(#未命名的渐变_95-3);}.cls-8{fill:none;}</style><linearGradient id="未命名的渐变_123" x1="6.22" y1="14.38" x2="41.49" y2="34.74" gradientUnits="userSpaceOnUse"><stop offset="0" stop-color="#cb00e9"/><stop offset="1" stop-color="#1149ae"/></linearGradient><linearGradient id="未命名的渐变_169" x1="29.27" y1="23.02" x2="34.59" y2="26.09" gradientUnits="userSpaceOnUse"><stop offset="0" stop-color="#ffaf1b"/><stop offset="1" stop-color="#ff664b"/></linearGradient><linearGradient id="未命名的渐变_123-2" x1="9.57" y1="7.62" x2="37.58" y2="7.62" xlink:href="#未命名的渐变_123"/><linearGradient id="未命名的渐变_95" x1="8.51" y1="16.97" x2="17.49" y2="22.15" gradientUnits="userSpaceOnUse"><stop offset="0" stop-color="#fff" stop-opacity="0.4"/><stop offset="1" stop-color="#fff" stop-opacity="0"/></linearGradient><linearGradient id="未命名的渐变_169-2" x1="-65.37" y1="48.05" x2="-62.89" y2="57.31" gradientTransform="translate(46.42 -51.5) rotate(-45)" xlink:href="#未命名的渐变_169"/><linearGradient id="未命名的渐变_95-2" x1="37.55" y1="27.8" x2="38.55" y2="28.38" xlink:href="#未命名的渐变_95"/><linearGradient id="未命名的渐变_95-3" x1="34.48" y1="30.11" x2="37.23" y2="31.7" xlink:href="#未命名的渐变_95"/></defs><title>提现-new</title><g id="图层_2" data-name="图层 2"><g id="图层_1-2" data-name="图层 1"><path class="cls-1" d="M41,13.91a1.43,1.43,0,0,0-1.43-1.43H8.14a1.43,1.43,0,0,0-1.43,1.43V35.2a1.43,1.43,0,0,0,1.43,1.43H39.58A1.43,1.43,0,0,0,41,35.2V29.77H31.93a5.22,5.22,0,0,1,0-10.43H41Z"/><circle class="cls-2" cx="31.93" cy="24.56" r="3.07"/><path class="cls-3" d="M37.58,11.15,35.8,4.94a1.19,1.19,0,0,0-1.46-.81l-24.77,7Z"/><path class="cls-4" d="M8.7,27.14V17.38a2.77,2.77,0,0,1,2.77-2.77H21.85Z"/><polygon class="cls-5" points="36.37 29.14 38.32 25.57 40.28 29.14 43.86 31.1 40.28 33.06 38.32 36.63 36.37 33.06 32.79 31.1 36.37 29.14"/><polygon class="cls-6" points="38.14 26.78 37.15 28.85 37.96 29.4 38.14 26.78"/><polygon class="cls-7" points="33.62 31.1 36.3 29.68 37.83 30.9 33.62 31.1"/><rect class="cls-8" width="50" height="44"/></g></g></svg>