<svg xmlns="http://www.w3.org/2000/svg" xmlns:xlink="http://www.w3.org/1999/xlink" viewBox="0 0 37.15 32.54"><defs><style>.cls-1{fill:url(#未命名的渐变_123);}.cls-2{fill:url(#未命名的渐变_169);}.cls-3{fill:url(#未命名的渐变_123-2);}.cls-4{fill:url(#未命名的渐变_95);}.cls-5{fill:url(#未命名的渐变_169-2);}.cls-6{fill:url(#未命名的渐变_95-2);}.cls-7{fill:url(#未命名的渐变_95-3);}</style><linearGradient id="未命名的渐变_123" x1="-0.49" y1="10.29" x2="34.78" y2="30.65" gradientUnits="userSpaceOnUse"><stop offset="0" stop-color="#cb00e9"/><stop offset="1" stop-color="#1149ae"/></linearGradient><linearGradient id="未命名的渐变_169" x1="22.56" y1="18.93" x2="27.88" y2="22.01" gradientUnits="userSpaceOnUse"><stop offset="0" stop-color="#ffaf1b"/><stop offset="1" stop-color="#ff664b"/></linearGradient><linearGradient id="未命名的渐变_123-2" x1="2.86" y1="3.53" x2="30.87" y2="3.53" xlink:href="#未命名的渐变_123"/><linearGradient id="未命名的渐变_95" x1="1.8" y1="12.88" x2="10.78" y2="18.07" gradientUnits="userSpaceOnUse"><stop offset="0" stop-color="#fff" stop-opacity="0.4"/><stop offset="1" stop-color="#fff" stop-opacity="0"/></linearGradient><linearGradient id="未命名的渐变_169-2" x1="-72.08" y1="43.97" x2="-69.6" y2="53.22" gradientTransform="translate(47.34 -57.44) rotate(-45)" xlink:href="#未命名的渐变_169"/><linearGradient id="未命名的渐变_95-2" x1="30.84" y1="23.71" x2="31.84" y2="24.29" xlink:href="#未命名的渐变_95"/><linearGradient id="未命名的渐变_95-3" x1="27.77" y1="26.02" x2="30.52" y2="27.61" xlink:href="#未命名的渐变_95"/></defs><title>提现</title><g id="图层_2" data-name="图层 2"><g id="图层_1-2" data-name="图层 1"><path class="cls-1" d="M34.3,9.82a1.43,1.43,0,0,0-1.43-1.43H1.43A1.43,1.43,0,0,0,0,9.82v21.3a1.43,1.43,0,0,0,1.43,1.42H32.87a1.43,1.43,0,0,0,1.43-1.42V25.69H25.22a5.22,5.22,0,0,1,0-10.43H34.3Z"/><circle class="cls-2" cx="25.22" cy="20.47" r="3.07"/><path class="cls-3" d="M30.87,7.06,29.09.86A1.18,1.18,0,0,0,27.63.05l-24.77,7h28Z"/><path class="cls-4" d="M2,23.05V13.29a2.77,2.77,0,0,1,2.77-2.77H15.14Z"/><polygon class="cls-5" points="29.66 25.06 31.61 21.48 33.57 25.06 37.15 27.01 33.57 28.97 31.61 32.54 29.66 28.97 26.08 27.01 29.66 25.06"/><polygon class="cls-6" points="31.43 22.69 30.44 24.76 31.25 25.32 31.43 22.69"/><polygon class="cls-7" points="26.91 27.01 29.59 25.59 31.12 26.81 26.91 27.01"/></g></g></svg>