<svg xmlns="http://www.w3.org/2000/svg" xmlns:xlink="http://www.w3.org/1999/xlink" viewBox="0 0 16.95 16"><defs><style>.cls-1{fill:url(#未命名的渐变_401);}.cls-2{fill:url(#未命名的渐变_401-2);}</style><linearGradient id="未命名的渐变_401" y1="8" x2="16.95" y2="8" gradientUnits="userSpaceOnUse"><stop offset="0" stop-color="#c55eff"/><stop offset="1" stop-color="#fe32ad"/></linearGradient><linearGradient id="未命名的渐变_401-2" x1="5.19" y1="7.99" x2="11.77" y2="7.99" xlink:href="#未命名的渐变_401"/></defs><title>设置</title><g id="图层_2" data-name="图层 2"><g id="图层_1-2" data-name="图层 1"><path class="cls-1" d="M16.78,6.36c-.11-.54-.43-.87-.83-.86h-.07A2.09,2.09,0,0,1,13.8,3.41,2.47,2.47,0,0,1,14,2.62a1.08,1.08,0,0,0-.38-1.31L11.48.13h0A1.19,1.19,0,0,0,11,0a1.21,1.21,0,0,0-.85.34,3,3,0,0,1-1.64.92A3.07,3.07,0,0,1,6.86.35,1.21,1.21,0,0,0,5.56.09L3.39,1.29l0,0A1.08,1.08,0,0,0,3,2.62a2.47,2.47,0,0,1,.18.79A2.09,2.09,0,0,1,1.08,5.5H1c-.41,0-.73.32-.83.86A9.18,9.18,0,0,0,0,8,10.83,10.83,0,0,0,.18,9.67c.1.53.41.86.81.86h.08a2.09,2.09,0,0,1,2.08,2.08A2.38,2.38,0,0,1,3,13.4a1.1,1.1,0,0,0,.37,1.32l2.08,1.16h0a1.18,1.18,0,0,0,1.3-.27,3.06,3.06,0,0,1,1.68-1,3.09,3.09,0,0,1,1.7,1A1.18,1.18,0,0,0,11,16a1.08,1.08,0,0,0,.42-.08l2.16-1.19,0,0A1.09,1.09,0,0,0,14,13.39a2.38,2.38,0,0,1-.18-.79,2.09,2.09,0,0,1,2.08-2.08H16c.4,0,.71-.33.81-.86A9.49,9.49,0,0,0,17,8a9.55,9.55,0,0,0-.17-1.64Zm-1.14,3a3.24,3.24,0,0,0-3,3.24,3.67,3.67,0,0,0,.23,1.18l-1.88,1,0,0a5.61,5.61,0,0,0-.71-.6,3.11,3.11,0,0,0-1.81-.71,3.16,3.16,0,0,0-1.8.7,6,6,0,0,0-.72.64l-1.79-1a3.65,3.65,0,0,0,.23-1.19,3.25,3.25,0,0,0-3-3.24A8.91,8.91,0,0,1,1.18,8a8.08,8.08,0,0,1,.15-1.35,3.25,3.25,0,0,0,3-3.25,3.65,3.65,0,0,0-.23-1.17L6,1.18H6a5.25,5.25,0,0,0,.73.62,3.13,3.13,0,0,0,1.77.68,3.09,3.09,0,0,0,1.76-.67A5.35,5.35,0,0,0,11,1.2h0l1.85,1a3.34,3.34,0,0,0-.23,1.17,3.26,3.26,0,0,0,3,3.25A9.3,9.3,0,0,1,15.79,8a10.94,10.94,0,0,1-.15,1.36Z"/><path class="cls-2" d="M8.48,4.71a3.29,3.29,0,1,0,0,6.57,3.29,3.29,0,1,0,0-6.57Zm0,5.47A2.3,2.3,0,0,1,6.29,8,2.31,2.31,0,0,1,8.48,5.8,2.3,2.3,0,0,1,10.66,8,2.29,2.29,0,0,1,8.48,10.18Z"/></g></g></svg>