<svg xmlns="http://www.w3.org/2000/svg" viewBox="0 0 32 32"><defs><style>.cls-1{fill:none;}.cls-2{fill:#ff32ae;}.cls-3{fill:#0074f5;}.cls-4{fill:#6614e4;}</style></defs><title>关于我们</title><g id="图层_2" data-name="图层 2"><g id="图层_1-2" data-name="图层 1"><rect class="cls-1" width="32" height="32"/><path class="cls-2" d="M26.68,17.46l-9.61,4.33a2.06,2.06,0,0,1-2.14,0L5.32,17.46c-.51-.27-.65-1.28-.65-1.82.64.36,1.54.77,1.51.75L16,20.92l9.82-4.53,1.51-.75c0,.56-.18,1.6-.65,1.82Z"/><path class="cls-3" d="M26.68,12.93l-9.61,4.32a2.06,2.06,0,0,1-2.14,0L5.32,12.93a1.3,1.3,0,0,1,0-2.14l9.61-5.08a1.9,1.9,0,0,1,2.14,0l9.61,5.08a1.33,1.33,0,0,1,0,2.14Z"/><path class="cls-4" d="M16,25.46l9.82-4.54,1.51-.75c0,.56-.18,1.6-.65,1.82l-9.61,4.33a2.06,2.06,0,0,1-2.14,0L5.32,22c-.51-.27-.65-1.27-.65-1.82a16.31,16.31,0,0,0,1.51.75L16,25.46Z"/></g></g></svg>