<svg xmlns="http://www.w3.org/2000/svg" viewBox="0 0 55 55"><defs><style>.cls-1{fill:#bad4c8;}.cls-2{fill:#6a4626;}.cls-3{fill:#f26d4a;}.cls-4{fill:#d3401a;}.cls-5{fill:#fadab3;}.cls-6{fill:#694625;}.cls-7{fill:#452817;}.cls-8{fill:#fdfefb;}.cls-9{fill:#efc3a0;}.cls-10{fill:#aa3734;}.cls-11{fill:#e25e5d;}.cls-12{fill:#fff;}.cls-13{fill:#fcd4b1;}.cls-14{fill:#f2c8aa;}.cls-15{fill:#df5838;}</style></defs><title>头像女</title><g id="图层_2" data-name="图层 2"><g id="图层_1-2" data-name="图层 1"><path class="cls-1" d="M0,27.5A27.5,27.5,0,1,0,27.5,0,27.5,27.5,0,0,0,0,27.5Z"/><path class="cls-2" d="M11.86,36.47s2.11-4.81.55-15.35S16.84,5.67,27.34,5.67,44,9.52,43,20.34s-.16,15.17.1,16.13C43.13,36.47,25.24,38.22,11.86,36.47Z"/><path class="cls-3" d="M34,37.51a12.58,12.58,0,0,1-2.31-.71c-3.42-1.46-8.1,0-8.1,0a4.82,4.82,0,0,1-2.2.65c-1.54.16-2.22,2.29-2.43,3s-1.38,8.09-2.16,12.32a27.57,27.57,0,0,0,21.45,0c-.68-3.93-2-11.79-2.2-12.63-.22-1-1-2.54-2-2.7Z"/><path class="cls-4" d="M21.7,50.32h3.76s0,.88,0,2.29-1.63,1.68-2,1.68-1.74-.22-1.74-1.43Z"/><path class="cls-5" d="M14.14,25.1S12.77,24,12,24s-2.17.41-2.17,2.87a3.81,3.81,0,0,0,5,3.41s2.71,7,12.65,7,12.73-6.8,12.73-6.8,4.93,1.19,4.93-3.32-3.85-2.18-4.08-2a12.18,12.18,0,0,0-1.93-6.21s-7.46-.09-11.55-5.59c0,0-4.6,6-11.52,5.29a21.58,21.58,0,0,0-1.94,6.53Z"/><path class="cls-6" d="M18.17,22.31a2.74,2.74,0,0,1,2.67-1.83,2.7,2.7,0,0,1,2.67,1.67s.1.44-.72.05a4.08,4.08,0,0,0-1.92-.41,5.69,5.69,0,0,0-2.28.62C18.13,22.74,18.17,22.31,18.17,22.31Zm19.17,0a2.74,2.74,0,0,0-2.67-1.83A2.7,2.7,0,0,0,32,22.15s-.1.44.72.05a4.08,4.08,0,0,1,1.92-.41,5.69,5.69,0,0,1,2.28.62C37.38,22.74,37.34,22.31,37.34,22.31Z"/><path class="cls-7" d="M18.58,25.72a2.21,2.21,0,0,0,4.41,0h0a2.21,2.21,0,1,0-4.41,0Z"/><path class="cls-8" d="M19,25.37c.16.34.75.34,1.32,0s.89-.89.74-1.23A.41.41,0,0,0,21,24c-.17-.34-.77-.32-1.33,0s-.88.91-.71,1.24Z"/><path class="cls-7" d="M32.51,26.19a2.21,2.21,0,1,0,4.42,0h0a2.21,2.21,0,0,0-4.42,0Z"/><path class="cls-8" d="M32.92,25.84c-.16.47.42.71,1,.59a1.87,1.87,0,0,0,1.31-1.05.79.79,0,0,0-.31-.89c-.27-.4-.77-.54-1.49-.06s-1.07,1.21-.8,1.61Z"/><path class="cls-9" d="M26.12,29.89s1.53-3.41,3.11,0c0,0-.71-1.19-1.47-1.19S26.12,29.89,26.12,29.89Z"/><path class="cls-10" d="M24.2,32.42h6.7a3.63,3.63,0,0,1-3.3,2.48A3.82,3.82,0,0,1,24.2,32.42Z"/><path class="cls-11" d="M25.76,34.35a2.54,2.54,0,0,1,1.8-.77,3.65,3.65,0,0,1,2,.68A2.63,2.63,0,0,1,25.76,34.35Z"/><path class="cls-12" d="M18.1,29.79h1a.18.18,0,0,1,.2.2h0a.18.18,0,0,1-.2.2h-1a.18.18,0,0,1-.2-.2h0C17.9,29.85,18,29.79,18.1,29.79Z"/><path class="cls-12" d="M36,29.79h1c.14,0,.2.06.2.2h0a.18.18,0,0,1-.2.2H36a.18.18,0,0,1-.2-.2h0A.18.18,0,0,1,36,29.79Z"/><path class="cls-13" d="M11.2,27.42s-.62-1.7.9-1.7,1.9,1.83,2,2.36S11.26,27.61,11.2,27.42Z"/><path class="cls-14" d="M14.27,28.92s-2.45.68-3.07-1.5c0,0,2.27-.28,2.82.19A3.9,3.9,0,0,1,14.27,28.92Z"/><path class="cls-13" d="M44.09,27.42s.62-1.7-.91-1.7-1.9,1.83-2,2.36S44,27.61,44.09,27.42Z"/><path class="cls-14" d="M41,28.92s2.45.68,3.07-1.5c0,0-2.27-.28-2.82.19A3.9,3.9,0,0,0,41,28.92Z"/><path class="cls-15" d="M21.7,37.43l-.36,0c-1,.11-1.69,1.13-2.07,2,1.7.55.71,10.37.14,14.3l.44.13C20.35,51.4,21.66,38.88,21.7,37.43Zm14.11,2.14c-.34-.93-1-1.92-1.85-2.06l-.39-.08h0c0,1.44,1.32,13.75,1.84,16.42l.44-.14C35.26,49.88,34.34,40.66,35.81,39.57Z"/></g></g></svg>