<svg xmlns="http://www.w3.org/2000/svg" viewBox="0 0 32 32"><defs><style>.cls-1{fill:none;}.cls-2{fill:#fbb03b;}.cls-3{fill:#ff32ae;}.cls-4{fill:#0074f5;}</style></defs><title>我的推荐</title><g id="图层_2" data-name="图层 2"><g id="图层_1-2" data-name="图层 1"><rect class="cls-1" width="32" height="32"/><path class="cls-2" d="M26.4,10.7l-2.87,8.16H8.47l-3-8.16a1.19,1.19,0,0,1,.32-1.17A1.13,1.13,0,0,1,7,9.32l4.46,2.22,3.5-5.09a1.26,1.26,0,0,1,1-.53H16a1.25,1.25,0,0,1,.95.53l3.51,5.09,4.45-2.22a1,1,0,0,1,1.17.21.89.89,0,0,1,.32,1.17Z"/><path class="cls-2" d="M17.38,5.07a1.31,1.31,0,0,1-1.27,1.38H16a1.4,1.4,0,0,1-1.38-1.38A1.41,1.41,0,0,1,16,3.69h.11a1.39,1.39,0,0,1,1.27,1.38Z"/><path class="cls-2" d="M3.69,8.68A1.38,1.38,0,1,0,5.07,7.3,1.38,1.38,0,0,0,3.69,8.68Z"/><path class="cls-3" d="M25.55,8.89a1.38,1.38,0,0,0,.69,1.2,1.38,1.38,0,0,0,2.07-1.2,1.38,1.38,0,0,0-.69-1.19,1.38,1.38,0,0,0-2.07,1.19Z"/><path class="cls-3" d="M23.53,18.86H16.11V5.92a1.26,1.26,0,0,1,.95.53l3.5,5.09L25,9.32a.94.94,0,0,1,1.16.21,1.19,1.19,0,0,1,.32,1.17Z"/><path class="cls-3" d="M16.11,6.45V3.69a1.32,1.32,0,0,1,1.27,1.38,1.39,1.39,0,0,1-1.27,1.38Z"/><path class="cls-4" d="M25.23,18.23H6.77a1.06,1.06,0,0,0-1.06,1.06v8a1,1,0,0,0,1.06,1.07H25.23a1,1,0,0,0,1.06-1.07V19.29A1,1,0,0,0,25.23,18.23ZM13.94,26H13l-.84-2-.85,2h-1l-2.12-5.2H9.48l1.38,3.82.53-1.38-.85-2.44h1.07l.53,1.7.53-1.7h1.16l-.95,2.44.53,1.38,1.38-3.82h1.27Zm3.82,0H16.48v-5.2h1.28Zm5.51,0h-.95l-2.44-3v3H18.71v-5.2h1l2.44,3.08V20.82h1.16Z"/></g></g></svg>