<svg xmlns="http://www.w3.org/2000/svg" viewBox="0 0 32 32"><defs><style>.cls-1{fill:none;}.cls-2{fill:#ff32ae;}</style></defs><title>提款密码</title><g id="图层_2" data-name="图层 2"><g id="图层_1-2" data-name="图层 1"><rect class="cls-1" width="32" height="32"/><path class="cls-2" d="M23.08,13.51V12.8A7.31,7.31,0,0,0,16,5.3a7.31,7.31,0,0,0-7.08,7.5v.71H7.8a.87.87,0,0,0-.87.87V25.84a.87.87,0,0,0,.87.86H24.2a.87.87,0,0,0,.87-.86V14.38a.87.87,0,0,0-.87-.87ZM10.66,12.8A5.53,5.53,0,0,1,16,7.11a5.53,5.53,0,0,1,5.34,5.69v.71H10.66Zm6.16,9.78a.82.82,0,1,1-1.64,0V17.64a.82.82,0,1,1,1.64,0Z"/></g></g></svg>