<svg xmlns="http://www.w3.org/2000/svg" viewBox="0 0 32 32"><defs><style>.cls-1{fill:none;}.cls-2{fill:#ff32ae;}.cls-3{fill:#0074f5;}</style></defs><title>消息中心</title><g id="图层_2" data-name="图层 2"><g id="图层_1-2" data-name="图层 1"><rect class="cls-1" width="32" height="32"/><path class="cls-2" d="M18.32,23.94H13.39a.72.72,0,0,0-.53.23.71.71,0,0,0-.19.54,3.21,3.21,0,0,0,1,2.05,3.14,3.14,0,0,0,2.15.83A3.23,3.23,0,0,0,18,26.76a3.12,3.12,0,0,0,1-2.05.75.75,0,0,0-.19-.54A.64.64,0,0,0,18.32,23.94Z"/><path class="cls-3" d="M27.75,11.78a.61.61,0,0,0-1,.7,5.66,5.66,0,0,1,.46,5.75l0,.07a.61.61,0,0,0,.21.78l.07,0a.6.6,0,0,0,.81-.27l0-.07a6.93,6.93,0,0,0-.58-7Z"/><path class="cls-3" d="M24.66,13.79a.62.62,0,0,0-.25.83A2.71,2.71,0,0,1,24.57,17a.59.59,0,0,0,.23.71.38.38,0,0,0,.13.06.62.62,0,0,0,.79-.34A4.07,4.07,0,0,0,25.49,14a.63.63,0,0,0-.83-.24Z"/><path class="cls-3" d="M5.09,11.41a.62.62,0,0,0-.85.14,6.88,6.88,0,0,0-.56,7l0,.07a.6.6,0,0,0,.81.27l.08,0a.61.61,0,0,0,.2-.77l0-.07a5.66,5.66,0,0,1,.46-5.75A.6.6,0,0,0,5.09,11.41Z"/><path class="cls-3" d="M7.07,17.52a.52.52,0,0,1,.13-.06.61.61,0,0,0,.23-.72,2.83,2.83,0,0,1,.15-2.33.61.61,0,1,0-1.07-.59,3.9,3.9,0,0,0-.23,3.35.6.6,0,0,0,.79.35Z"/><path class="cls-2" d="M23.35,19.4l-1.52-2,0,0a.22.22,0,0,1-.06-.15V14.32h0v-1a6.5,6.5,0,0,0-1.63-4.42,5.59,5.59,0,0,0-2.34-1.55,1.93,1.93,0,0,0-1.93-1.71,1.94,1.94,0,0,0-1.3.5,1.9,1.9,0,0,0-.62,1.21,5.62,5.62,0,0,0-2.34,1.55A6.55,6.55,0,0,0,10,13.36V17.2a.25.25,0,0,1-.06.15l0,0-1.52,2a1,1,0,0,0-.28.69v1a1,1,0,0,0,1,1H22.61a1,1,0,0,0,1-1v-1A1,1,0,0,0,23.35,19.4Z"/></g></g></svg>