<svg xmlns="http://www.w3.org/2000/svg" viewBox="0 0 55 55"><defs><style>.cls-1{fill:#80acea;}.cls-2{fill:#96529a;}.cls-3{fill:#ffc6a2;}.cls-4{fill:#442a1c;}.cls-5{fill:#fcfcfc;}.cls-6{fill:#4c362a;}.cls-7{fill:#ff9a67;}.cls-8{fill:#fdb18f;}</style></defs><title>男</title><g id="图层_2" data-name="图层 2"><g id="图层_1-2" data-name="图层 1"><path class="cls-1" d="M55,27.5A27.5,27.5,0,1,0,13.49,51.16a14.51,14.51,0,0,1,11.32-5.43h2.6a14.51,14.51,0,0,1,12.11,6.51A27.5,27.5,0,0,0,55,27.5Z"/><path class="cls-2" d="M27.41,45.73h-2.6a14.5,14.5,0,0,0-11.32,5.43,27.51,27.51,0,0,0,26,1.08A14.51,14.51,0,0,0,27.41,45.73Z"/><path class="cls-3" d="M30,39.67H22.5v7a3.61,3.61,0,0,0,3.62,2.76A4.14,4.14,0,0,0,30,46.51V39.67Z"/><path class="cls-3" d="M30,39.67H22.5v6.95h0a3.62,3.62,0,0,0,3.62,2.77A4.14,4.14,0,0,0,30,46.51V39.67Z"/><path class="cls-3" d="M15.54,29.44a2.45,2.45,0,0,1-4.9,0V28.21a2.45,2.45,0,1,1,4.9,0Z"/><path class="cls-3" d="M15.54,29.44a2.45,2.45,0,0,1-4.9,0V28.21a2.45,2.45,0,1,1,4.9,0Z"/><path class="cls-3" d="M41.73,29.44a2.46,2.46,0,0,1-4.91,0V28.21a2.46,2.46,0,0,1,4.91,0Z"/><path class="cls-3" d="M41.73,29.44a2.46,2.46,0,0,1-4.91,0V28.21a2.46,2.46,0,0,1,4.91,0Z"/><path class="cls-3" d="M40.09,29.59A13.76,13.76,0,0,1,26.33,43.35H26A13.76,13.76,0,0,1,12.27,29.59v-6A13.76,13.76,0,0,1,26,9.8h.3A13.76,13.76,0,0,1,40.09,23.56Z"/><path class="cls-4" d="M37.89,18.92l-1.64.28s2.35,13.38.47,15.72c-3.26,4-17,3.66-20.72,0-2.12-2.12-.28-15.79-.28-15.79l-3.43,3.76c0,.22,0,.45,0,.67v6A13.76,13.76,0,0,0,26,43.35h.3A13.76,13.76,0,0,0,40.09,29.59v-6c0-.22-2.19-4.42-2.2-4.64"/><path class="cls-4" d="M39.65,19.7A13.76,13.76,0,0,0,26.33,9.39H26A13.76,13.76,0,0,0,12.71,19.7Z"/><path class="cls-4" d="M13.35,24.41a20.52,20.52,0,0,0,2.43-6.2V14a13.75,13.75,0,0,0-3.51,9.18v2.7a8,8,0,0,0,1.08-1.44m25.71,0a21.05,21.05,0,0,1-2.43-6.2V14a13.7,13.7,0,0,1,3.51,9.18v2.7a8.46,8.46,0,0,1-1.08-1.44"/><path class="cls-4" d="M41.42,6.89s-9.15,2.5-15.78,2.5-3.81,9,7.47,10c9.77,1,8.41-12.08,8.31-12.53m-9.1,30c0,1.14-1.22,2-2.67,2H22.71c-1.45,0-2.67-.84-2.67-2V35.61a2.45,2.45,0,0,1,2.67-2.08h6.94a2.45,2.45,0,0,1,2.67,2.08Z"/><path class="cls-5" d="M23,36.33a3.07,3.07,0,1,0,6.13,0Z"/><path class="cls-6" d="M34.57,26.73a2.56,2.56,0,0,0-5.12,0h0s0,.06,0,.09a.42.42,0,0,0,.83,0s0-.06,0-.09h0a1.72,1.72,0,0,1,3.44,0h0a.44.44,0,0,0,0,.1.42.42,0,0,0,.83,0,.44.44,0,0,0,0-.1Zm-11.79,0a2.57,2.57,0,0,0-5.13,0h0a.29.29,0,0,0,0,.09.42.42,0,0,0,.44.4.41.41,0,0,0,.4-.4.29.29,0,0,0,0-.09h0a1.73,1.73,0,0,1,3.45,0h0a.44.44,0,0,0,0,.1.42.42,0,0,0,.44.4.41.41,0,0,0,.4-.4.44.44,0,0,0,0-.1Z"/><path class="cls-7" d="M25.12,30.83c0,1,.62,1.85,1.39,1.85s1.39-.83,1.39-1.85S27.27,29,26.51,29,25.12,29.81,25.12,30.83Z"/><path class="cls-8" d="M15.49,31.65a2.16,2.16,0,0,0,4.32,0h0a2.16,2.16,0,0,0-4.32,0Z"/></g></g></svg>