<svg xmlns="http://www.w3.org/2000/svg" viewBox="0 0 32 32"><defs><style>.cls-1{fill:none;}.cls-2{fill:#ff32ae;}.cls-3{fill:#0074f5;}</style></defs><title>登录密码</title><g id="图层_2" data-name="图层 2"><g id="图层_1-2" data-name="图层 1"><rect class="cls-1" width="32" height="32"/><path class="cls-2" d="M23.92,22.41a.87.87,0,0,0-1.74,0,.84.84,0,0,0,.39.72.2.2,0,0,0,0,.07v1.34a.49.49,0,1,0,1,0V23.2s0,0,0-.06a.88.88,0,0,0,.4-.73Z"/><path class="cls-3" d="M18.08,24.33H4.83a1.17,1.17,0,0,1-1.17-1.16V17.51h1.5v5.32H18.08Z"/><path class="cls-3" d="M23.6,11.65H22.1V6.18H5.16v4.69H3.66v-5A1.16,1.16,0,0,1,4.83,4.69h17.6A1.16,1.16,0,0,1,23.6,5.85v5.8Z"/><path class="cls-3" d="M16.3,13.59,11.2,8.5l-1,1.06,4.09,4.1L3.67,13.5l0,1.49,10.51.16-3.93,3.94,1.06,1.05,5-5A1.1,1.1,0,0,0,16.3,13.59Z"/><path class="cls-2" d="M27.1,19H18.6a1.25,1.25,0,0,0-1.25,1.25v5.79a1.24,1.24,0,0,0,1.25,1.24h8.5a1.24,1.24,0,0,0,1.25-1.24V20.28A1.25,1.25,0,0,0,27.1,19Zm-.25,6.79h-8V20.53h8Z"/><path class="cls-2" d="M18.53,20.67a.76.76,0,0,1-.74-.64,6,6,0,0,1-.05-.74,5.11,5.11,0,0,1,9.63-2.39.75.75,0,0,1-.31,1,.74.74,0,0,1-1-.3,3.61,3.61,0,0,0-6.81,1.69,4.53,4.53,0,0,0,0,.52.75.75,0,0,1-.63.85Z"/></g></g></svg>