<svg xmlns="http://www.w3.org/2000/svg" xmlns:xlink="http://www.w3.org/1999/xlink" viewBox="0 0 40 40"><defs><style>.cls-1{fill:url(#未命名的渐变_5);}.cls-2{fill:url(#未命名的渐变_20);}.cls-3{fill:#fff;}</style><linearGradient id="未命名的渐变_5" x1="20" y1="0.38" x2="20" y2="40.38" gradientUnits="userSpaceOnUse"><stop offset="0" stop-color="#ffc62b"/><stop offset="1" stop-color="#ffb032"/></linearGradient><linearGradient id="未命名的渐变_20" x1="20" x2="20" y2="40" gradientUnits="userSpaceOnUse"><stop offset="0" stop-color="#ffdd80"/><stop offset="1" stop-color="#ffc86b"/></linearGradient></defs><title>资源 13</title><g id="图层_2" data-name="图层 2"><g id="图层_1-2" data-name="图层 1"><circle class="cls-1" cx="20" cy="20" r="20"/><path class="cls-2" d="M20,.5A19.5,19.5,0,1,1,.5,20,19.53,19.53,0,0,1,20,.5M20,0A20,20,0,1,0,40,20,20,20,0,0,0,20,0Z"/><path class="cls-3" d="M28.09,14.06l-5.65,8.09,0,2.38,2.3-.64,5.65-8.09Zm.68-1,.94-1.35,2.35,1.74-.94,1.35Z"/><path class="cls-3" d="M25.43,24.39l-3.63,1-.11-3.66,6.76-9.57a2,2,0,0,0-1.91-1.44H13.32a2,2,0,0,0-2,2V27.26a2,2,0,0,0,2,2H26.54a2,2,0,0,0,2-2V20l-3.11,4.39ZM14.37,14.25h8a.94.94,0,0,1,0,1.88h-8a.94.94,0,0,1,0-1.88ZM18.59,25.5H14.37a.95.95,0,0,1,0-1.89h4.22a.95.95,0,0,1,0,1.89Zm1.68-4.69h-5.9a.94.94,0,0,1,0-1.88h5.9a.94.94,0,1,1,0,1.88Z"/></g></g></svg>