<svg xmlns="http://www.w3.org/2000/svg" xmlns:xlink="http://www.w3.org/1999/xlink" viewBox="0 0 40 40"><defs><style>.cls-1{fill:url(#未命名的渐变_29);}.cls-2{fill:url(#未命名的渐变_58);}.cls-3{fill:#fff;}</style><linearGradient id="未命名的渐变_29" x1="20" y1="0.38" x2="20" y2="40.38" gradientUnits="userSpaceOnUse"><stop offset="0" stop-color="#ff5b3a"/><stop offset="1" stop-color="#fb2567"/></linearGradient><linearGradient id="未命名的渐变_58" x1="20" x2="20" y2="40" gradientUnits="userSpaceOnUse"><stop offset="0" stop-color="#ff755c"/><stop offset="1" stop-color="#fb5387"/></linearGradient></defs><title>资源 12</title><g id="图层_2" data-name="图层 2"><g id="图层_1-2" data-name="图层 1"><circle class="cls-1" cx="20" cy="20" r="20"/><path class="cls-2" d="M20,.5A19.5,19.5,0,1,1,.5,20,19.53,19.53,0,0,1,20,.5M20,0A20,20,0,1,0,40,20,20,20,0,0,0,20,0Z"/><path class="cls-3" d="M26.46,13a4.71,4.71,0,0,0-1.73-2.61,2.45,2.45,0,0,0-2.52.05c-.88.45-5.11,2.52-4.7,2.52l9,0Zm3,2.28A1.45,1.45,0,0,0,28.22,14L11.79,14a1.35,1.35,0,0,0-1.24,1.22V26.32A1.47,1.47,0,0,0,12.18,28h16a1.51,1.51,0,0,0,1.23-1.23V22.68l-5.35-.06a1.51,1.51,0,0,1-1.25-1.23l0-1.71a1.46,1.46,0,0,1,1.23-1.16l5.32,0c0-1.09,0-2.17,0-3.25Z"/><path class="cls-3" d="M23.59,20.39a1.1,1.1,0,0,0,.54.93,1.07,1.07,0,1,0,0-1.86,1.1,1.1,0,0,0-.54.93Z"/></g></g></svg>