<svg xmlns="http://www.w3.org/2000/svg" xmlns:xlink="http://www.w3.org/1999/xlink" viewBox="0 0 40 40"><defs><style>.cls-1{fill:url(#未命名的渐变_77);}.cls-2{fill:url(#未命名的渐变_92);}.cls-3{fill:#fff;}</style><linearGradient id="未命名的渐变_77" x1="20" y1="0.38" x2="20" y2="40.38" gradientUnits="userSpaceOnUse"><stop offset="0" stop-color="#9448ff"/><stop offset="1" stop-color="#5d3cef"/></linearGradient><linearGradient id="未命名的渐变_92" x1="20" x2="20" y2="40" gradientUnits="userSpaceOnUse"><stop offset="0" stop-color="#a568fe"/><stop offset="1" stop-color="#7052f0"/></linearGradient></defs><title>资源 10</title><g id="图层_2" data-name="图层 2"><g id="图层_1-2" data-name="图层 1"><circle class="cls-1" cx="20" cy="20" r="20"/><path class="cls-2" d="M20,.5A19.5,19.5,0,1,1,.5,20,19.53,19.53,0,0,1,20,.5M20,0A20,20,0,1,0,40,20,20,20,0,0,0,20,0Z"/><path class="cls-3" d="M29.8,14.19a1.7,1.7,0,0,0-1.7-1.69H12.63a1.7,1.7,0,0,0-1.7,1.69v1.88H29.8ZM26.05,20a5.66,5.66,0,0,1,3.75,1.42V18.61H10.93v7.11a1.7,1.7,0,0,0,1.7,1.69h8A5.69,5.69,0,0,1,26.05,20Zm4.62,3.77a4.94,4.94,0,0,0-1.08-1.58A5.2,5.2,0,0,0,28,21.07a5.07,5.07,0,0,0-3.9,0,5.32,5.32,0,0,0-1.59,1.08,4.94,4.94,0,0,0-1.08,1.58,4.62,4.62,0,0,0-.4,1.92,4.68,4.68,0,0,0,.4,1.94,4.94,4.94,0,0,0,1.08,1.58,5.09,5.09,0,0,0,1.59,1.06,5,5,0,0,0,6.57-2.64,4.68,4.68,0,0,0,.4-1.94,4.62,4.62,0,0,0-.4-1.92ZM28.87,28a2.1,2.1,0,0,0-2-1.39V28.7a.55.55,0,0,1-.16.38.51.51,0,0,1-.37.15.54.54,0,0,1-.44-.23L23,26.05a.53.53,0,0,1,0-.78L26,22.2h0a.48.48,0,0,1,.35-.13.52.52,0,0,1,.53.52v1.6a2.41,2.41,0,0,1,2.41,2.41A2.38,2.38,0,0,1,28.87,28Z"/></g></g></svg>