<svg xmlns="http://www.w3.org/2000/svg" xmlns:xlink="http://www.w3.org/1999/xlink" viewBox="0 0 40 40"><defs><style>.cls-1{fill:url(#未命名的渐变_66);}.cls-2{fill:url(#未命名的渐变_73);}.cls-3{fill:#fff;}</style><linearGradient id="未命名的渐变_66" x1="20" y1="0.38" x2="20" y2="40.38" gradientUnits="userSpaceOnUse"><stop offset="0" stop-color="#3eabda"/><stop offset="1" stop-color="#2e8bdf"/></linearGradient><linearGradient id="未命名的渐变_73" x1="20" x2="20" y2="40" gradientUnits="userSpaceOnUse"><stop offset="0" stop-color="#71b9da"/><stop offset="1" stop-color="#4e9bdf"/></linearGradient></defs><title>资源 11</title><g id="图层_2" data-name="图层 2"><g id="图层_1-2" data-name="图层 1"><circle class="cls-1" cx="20" cy="20" r="20"/><path class="cls-2" d="M20,.5A19.5,19.5,0,1,1,.5,20,19.53,19.53,0,0,1,20,.5M20,0A20,20,0,1,0,40,20,20,20,0,0,0,20,0Z"/><path class="cls-3" d="M28.24,13.11H21.53V11.89a1.53,1.53,0,0,0-3.06,0v1.22H11.76a1.83,1.83,0,0,0-1.83,1.83v11a1.83,1.83,0,0,0,1.83,1.83H28.24a1.83,1.83,0,0,0,1.83-1.83v-11a1.83,1.83,0,0,0-1.83-1.83ZM20,11.28a.61.61,0,0,1,.61.61.61.61,0,0,1-1.22,0,.61.61,0,0,1,.61-.61ZM16,15.7a2.55,2.55,0,1,1-2.55,2.55A2.55,2.55,0,0,1,16,15.7Zm4,9.92H12.07V24.48a2.83,2.83,0,0,1,2.83-2.83h2.27A2.83,2.83,0,0,1,20,24.48Zm7.93-5.8H22.14V18.9h5.79Zm.31-2.14H20.61v-.91h7.63Z"/></g></g></svg>