<svg xmlns="http://www.w3.org/2000/svg" viewBox="0 0 200 200"><title>资源 1</title><g id="图层_2" data-name="图层 2"><g id="图层_1-2" data-name="图层 1"><rect width="200" height="200" style="fill:none"/><path d="M196.5,62.4a9.82,9.82,0,0,0-1.6-13.7,9.65,9.65,0,0,0-13.5,1.5h0c-26.6,33.1-53.2,49.1-79.8,49.1s-54.4-16.2-83-49.4A9.71,9.71,0,0,0,3.9,62.6,231,231,0,0,0,31.6,90.1l-18.1,21A6.95,6.95,0,1,0,24,120.2L42.5,98.8c.1-.1.1-.2.2-.2a123.11,123.11,0,0,0,27.4,14.5,4.84,4.84,0,0,0-.7,1.8L62,144.5a6.95,6.95,0,0,0,13.5,3.3l7.4-29.6a6.75,6.75,0,0,0,.2-1.4,90.49,90.49,0,0,0,18.6,2,87.36,87.36,0,0,0,21.5-2.7l10.4,29.5a6.93,6.93,0,0,0,8.9,4.1,7,7,0,0,0,4.2-8.7l-10.3-29.4a122.41,122.41,0,0,0,28.5-17.1l17.6,17.6a6.93,6.93,0,0,0,9.8-9.8L175.5,85.5A255.42,255.42,0,0,0,196.5,62.4Z" style="fill:#697081;"/></g></g></svg>