<svg xmlns="http://www.w3.org/2000/svg" viewBox="0 0 24 24"><defs><style>.cls-1{fill:none;}.cls-2{fill:#b9cff0;}.cls-2,.cls-3{fill-rule:evenodd;}.cls-3{fill:#1c87c9;}</style></defs><title>资源 18</title><g id="图层_2" data-name="图层 2"><g id="图层_1-2" data-name="图层 1"><rect class="cls-1" width="24" height="24"/><g id="Group"><path id="Path" class="cls-2" d="M3.33,6.76l8.6-4.4,8.6,4.4v10.5l-8.6,4.4-8.6-4.4Z"/><path id="Combined-Shape" class="cls-3" d="M10.43,9.56l1.7-4.2c4.9.6,7.1,3.1,6.6,7.6C17.23,8.86,14.53,7.76,10.43,9.56Zm4.9,2,2.8,3.6c-2.9,4-6.2,4.6-9.9,1.9C12.43,17.86,14.83,16.06,15.33,11.56ZM10.73,15l-4.5.7c-2-4.5-.9-7.7,3.3-9.5C6.63,9.36,7.13,12.26,10.73,15Z"/></g></g></g></svg>