<svg xmlns="http://www.w3.org/2000/svg" viewBox="0 0 24 24"><defs><style>.cls-1{fill:none;}.cls-2{fill:#98683d;}.cls-2,.cls-3,.cls-4{fill-rule:evenodd;}.cls-3{fill:#338acf;}.cls-4{fill:#1c87c9;}</style></defs><title>资源 26</title><g id="图层_2" data-name="图层 2"><g id="图层_1-2" data-name="图层 1"><rect class="cls-1" width="24" height="24"/><g id="炉石传说"><path id="Combined-Shape" class="cls-2" d="M9.5,17.9a4.05,4.05,0,0,1-.9-.5l-3,1,1-3a4.05,4.05,0,0,1-.5-.9L1.9,12,6.1,9.5a4.05,4.05,0,0,1,.5-.9l-1-3,3,1a4.05,4.05,0,0,1,.9-.5L12,1.9l2.5,4.2a4.05,4.05,0,0,1,.9.5l3-1-1,3a4.05,4.05,0,0,1,.5.9L22.1,12l-4.2,2.5a4.05,4.05,0,0,1-.5.9l1,3-3-1a4.05,4.05,0,0,1-.9.5L12,22.1Zm2.5-.4A5.5,5.5,0,1,0,6.5,12,5.55,5.55,0,0,0,12,17.5Z"/><g id="Path-4"><path id="path-1" class="cls-3" d="M11,11.4a.78.78,0,0,1-.3-.7c.4-.2.7-.3.9-.1.4.1,1,.4,1,1.5a1.57,1.57,0,0,1-1.9,1.4,3.16,3.16,0,0,1-2.2-2,10,10,0,0,1-.2-1.6V9.5l.3-.1.9-1.1a3.35,3.35,0,0,1,1.7-.8,3.78,3.78,0,0,1,2,.4,5.46,5.46,0,0,1,1.9,1.8,4.47,4.47,0,0,1,.4,2.4c-.2.6-.1.9-.4,1.4a3.61,3.61,0,0,1-.8,1.5,7.46,7.46,0,0,1-1.2.7,7,7,0,0,1-1.4.3c-.3,0-.5.3-.9.2s-1.1.1-1.4-.2-1-.6-.8-.7a2.61,2.61,0,0,1,.8-.3,2.17,2.17,0,0,0,1-.2c.3-.1.6-.3.9-.4a6.89,6.89,0,0,0,1-.4,1.85,1.85,0,0,0,.8-.7c.2-.3.6-.6.6-.9a4.16,4.16,0,0,0,0-1.6,3,3,0,0,0-.8-1.5,1.9,1.9,0,0,0-1.3-.1c-.3.1-1.1.2-1.2.6a1.91,1.91,0,0,0-.5,1c0,.3,0,.9.3,1S11.3,11.7,11,11.4Z"/><path id="path-11" class="cls-4" d="M11,11.4a.78.78,0,0,1-.3-.7c.4-.2.7-.3.9-.1.4.1,1,.4,1,1.5a1.57,1.57,0,0,1-1.9,1.4,3.16,3.16,0,0,1-2.2-2,10,10,0,0,1-.2-1.6V9.5l.3-.1.9-1.1a3.35,3.35,0,0,1,1.7-.8,3.78,3.78,0,0,1,2,.4,5.46,5.46,0,0,1,1.9,1.8,4.47,4.47,0,0,1,.4,2.4c-.2.6-.1.9-.4,1.4a3.61,3.61,0,0,1-.8,1.5,7.46,7.46,0,0,1-1.2.7,7,7,0,0,1-1.4.3c-.3,0-.5.3-.9.2s-1.1.1-1.4-.2-1-.6-.8-.7a2.61,2.61,0,0,1,.8-.3,2.17,2.17,0,0,0,1-.2c.3-.1.6-.3.9-.4a6.89,6.89,0,0,0,1-.4,1.85,1.85,0,0,0,.8-.7c.2-.3.6-.6.6-.9a4.16,4.16,0,0,0,0-1.6,3,3,0,0,0-.8-1.5,1.9,1.9,0,0,0-1.3-.1c-.3.1-1.1.2-1.2.6a1.91,1.91,0,0,0-.5,1c0,.3,0,.9.3,1S11.3,11.7,11,11.4Z"/></g></g></g></g></svg>