<svg xmlns="http://www.w3.org/2000/svg" viewBox="0 0 24 24"><defs><style>.cls-1{fill:none;}.cls-2{fill:#b9cff0;}.cls-2,.cls-3{fill-rule:evenodd;}.cls-3{fill:#e5b362;}</style></defs><title>资源 19</title><g id="图层_2" data-name="图层 2"><g id="图层_1-2" data-name="图层 1"><rect class="cls-1" width="24" height="24"/><g id="Group-4"><path id="Combined-Shape" class="cls-2" d="M11,4.76c0-.3.4-.5,1-.5s1,.2,1,.5v1.4h3.8V4.46c1.8.2,2.9.5,2.9.7v9.9a4.18,4.18,0,0,1-2.4,3.8L12,21.56l-5.3-2.7a4.36,4.36,0,0,1-2.4-3.8V5.26c0-.3,1.1-.6,2.9-.7v11.3c0,1.1,2.2,1.9,4.8,1.9s4.8-.9,4.8-1.9V9.16c0-1.1-1.7-1.9-3.8-1.9a5.82,5.82,0,0,0-1.9.3V6.26A7.57,7.57,0,0,1,11,4.76Zm-.4,5.2c0-.1,0-.1-.1-.1v-.2h.1v-.2a1.48,1.48,0,0,1,.7-.1h.4c0,.1.1.2.1.3a.37.37,0,0,0,.3.1h.2a5.39,5.39,0,0,1,1.6-.5c.3,0,.4.2.5.6v1a4.1,4.1,0,0,0-1.4.3.22.22,0,0,0-.2.2v1.1c0,.1,0,.1-.1.1a1.22,1.22,0,0,0-.9.4v2.6c0,.1-.1.1-.2.1h-.2l-.1.1h-.6v-.1h-.1v-.1h-.2l.2-.3Zm1.7,1.1a.35.35,0,0,0,.2.1c.1.1.1.1.1.2h0a.35.35,0,0,0-.2-.1h-.3l-.3.2v.6c0,.1,0,.1.1.1h.6c.1,0,.1,0,.1-.1v-.9c0-.1-.1-.1-.2-.1Zm-1.5,8.7.4.2-.1-.5.3-.3-.5-.1-.1-.4-.2.4-.5.1.3.3-.1.5Zm2.4,0,.4.2-.1-.5.3-.3-.5-.1-.2-.4-.2.4-.5.1.3.3.1.5Zm-4.3-.7.4.2-.1-.5.3-.3-.5-.1-.2-.4-.2.4-.5.1.3.3.1.5Zm6.2,0,.4.2-.1-.5.3-.3-.5-.1L15,18l-.2.4-.5.1.3.3-.1.5Z"/><path id="Combined-Shape1" class="cls-3" d="M16.79,3.46v-.2H7.19v.2c-1.8.2-2.9.5-2.9.8v-1c0-.4,1.3-.7,3.3-.9a1.22,1.22,0,0,0-.4.9h9.6a1.22,1.22,0,0,0-.4-.9c2,.2,3.3.5,3.3.9v1.1C19.69,4,18.59,3.66,16.79,3.46Z"/></g></g></g></svg>