<svg xmlns="http://www.w3.org/2000/svg" viewBox="0 0 24 24"><defs><style>.cls-1{fill:none;}.cls-2{fill:#cb2828;fill-rule:evenodd;}</style></defs><title>资源 28</title><g id="图层_2" data-name="图层 2"><g id="图层_1-2" data-name="图层 1"><rect class="cls-1" width="24" height="24"/><path id="Combined-Shape" class="cls-2" d="M2.4,21V17.2l.3-.8V15l-.3-.8V12.5l.4-.8-.4-1.1.2-1.4L2.4,7.4l.2-2.5L2.4,3l.2-.6H7.7l1.1.4L10,2.4h3.1l1.1.4,1.2-.4h4l1,.4.6-.4.6.5v6L21.3,10l.3.6v1.1l-.3,1.5.3.3v8.2l-.8-.7H19.7l.3.6H18.5l-1.3-.3H13.5l-1.1.3-1-.3-.7.3-1.4-.5H7.7l-.7.2L6,21H4.5L3,21.2ZM13.8,6.7l3.6,2.7.3-.2V8.6l.3-2-1.2-.9-1.7.6h-.7ZM6,5.4l-1.5.9L16,18.1l2.4.2,1.1-3.6L8.8,7.5l-.5-.1-.2-.3-1-.6Zm.1,8.5L4.8,17.1l1.6,1.4H7.9l.5-.5,1.6-.5Z"/></g></g></svg>