<svg xmlns="http://www.w3.org/2000/svg" viewBox="0 0 24 24"><defs><style>.cls-1{fill:none;}.cls-2{fill:#1c87c9;}.cls-3{fill:#cb2828;}.cls-4{fill:#e5b362;}</style></defs><title>资源 16</title><g id="图层_2" data-name="图层 2"><g id="图层_1-2" data-name="图层 1"><rect class="cls-1" width="24" height="24"/><path class="cls-2" d="M6.6,4.2l.2.4L5,6.3l-.5-.2a9.4,9.4,0,0,0-.9,10.6c.2.4-1,3.5-1.7,4.7l5.2-5.2h0a6.07,6.07,0,0,1,.2-8.7h0A6.07,6.07,0,0,1,16,7.3l2.2-2.2A8.72,8.72,0,0,0,6.6,4.2Z"/><path class="cls-3" d="M22,2.8,16.9,7.9h0a6.07,6.07,0,0,1-.2,8.7,6.07,6.07,0,0,1-8.7.2L5.8,19h0a9.05,9.05,0,0,0,12.2.4l-.2-.5,1.7-1.7.4.2A9.39,9.39,0,0,0,20.4,7C20.1,6.8,21.3,3.9,22,2.8Z"/><path class="cls-4" d="M16.3,11.4a4.53,4.53,0,0,0-2.8-3.6,2.54,2.54,0,0,1-1.2-1.1c0-.1-.1-.1-.1-.2v3.9a1.72,1.72,0,0,1,1.4,1.7,1.81,1.81,0,0,1-1.4,1.7v2.4a4.05,4.05,0,0,0,3.7-4.1v-.6l.4-.1Z"/><path class="cls-4" d="M10.3,12a1.83,1.83,0,0,1,1.3-1.7V7.9A4.05,4.05,0,0,0,7.9,12a2,2,0,0,0,.1.8H7.6a4.53,4.53,0,0,0,2.7,3.3,3.13,3.13,0,0,1,1.1.9c.1.2.2.3.2.5V13.6A1.53,1.53,0,0,1,10.3,12Z"/></g></g></svg>