<svg xmlns="http://www.w3.org/2000/svg" viewBox="0 0 24 24"><defs><style>.cls-1{fill:none;}.cls-2{fill:#1c87c9;}.cls-2,.cls-3{fill-rule:evenodd;}.cls-3{fill:#b9cff0;}</style></defs><title>资源 23</title><g id="图层_2" data-name="图层 2"><g id="图层_1-2" data-name="图层 1"><rect class="cls-1" width="24" height="24"/><g id="星际2"><path id="Combined-Shape" class="cls-2" d="M11.5,13.8,7.8,9.1V8.8H8.9l1.1.5,1.6-1.6-.1,6.1Zm0,3.4v4.4a6.6,6.6,0,0,1-2.8-1.9,4.65,4.65,0,0,1-.9-2.3h3.1C11.1,17.3,11.3,17.3,11.5,17.2Zm4.8-3.1a2.25,2.25,0,0,1-.5-1.5V8.8h.5Zm-.1,3.2a5,5,0,0,1-.9,2.4,6,6,0,0,1-2.8,1.9v-6A5.54,5.54,0,0,0,16.2,17.3Zm.1-11.2H14.7a2.41,2.41,0,0,0-1.9.8c-.1.1-.1.2-.2.3V4l3.7-1.6,3.2,1.1L16.3,5.6Zm-4.8,0H7.7V5.6L4.5,3.5,7.7,2.4,11.4,4A14.77,14.77,0,0,1,11.5,6.1Z"/><path id="Combined-Shape1" class="cls-3" d="M3.2,7A1.14,1.14,0,0,1,4,6.7h8L9.9,8.8,8.8,8.3H2.9V7.8A1.14,1.14,0,0,1,3.2,7Zm9.9.3a2.11,2.11,0,0,1,1.6-.6h8L20.6,8.8l-1.1-.5H12.6A1.75,1.75,0,0,1,13.1,7.3ZM12,9.3h3.2a35.56,35.56,0,0,0,.1,3.7,2.36,2.36,0,0,0,1.5,2.1,11.47,11.47,0,0,0,3.2.5,5.17,5.17,0,0,1-3.2,1.1c-1.8,0-4.8-.8-4.8-4.3Zm-8.5,0H7.2l4.3,5.3a1.59,1.59,0,0,1,.4,1.2q0,.75-.9.9H1.3L4,14l1.1,1.1H8.3Z"/></g></g></g></svg>