<svg xmlns="http://www.w3.org/2000/svg" viewBox="0 0 24 24"><defs><style>.cls-1{fill:none;}.cls-2,.cls-3{fill:#e5b362;}.cls-2{fill-rule:evenodd;}</style></defs><title>资源 20</title><g id="图层_2" data-name="图层 2"><g id="图层_1-2" data-name="图层 1"><rect class="cls-1" width="24" height="24"/><g id="绝地求生"><path id="Combined-Shape" class="cls-2" d="M4,4.9H19.9A1.11,1.11,0,0,1,21,6V18a1.11,1.11,0,0,1-1.1,1.1H4A1.11,1.11,0,0,1,2.9,18V6.1A1.13,1.13,0,0,1,4,4.9ZM3.9,7V17H20V7Z"/><rect id="Rectangle-4" class="cls-3" x="1.9" y="8" width="2" height="2"/><rect id="Rectangle-41" class="cls-3" x="1.9" y="14" width="2" height="2"/><rect id="Rectangle-42" class="cls-3" x="20.1" y="8" width="2" height="2"/><rect id="Rectangle-43" class="cls-3" x="20.1" y="14" width="2" height="2"/><rect id="Rectangle-3" class="cls-3" x="4.9" y="8" width="1" height="8.1"/><path id="Combined-Shape1" class="cls-2" d="M9.5,8v6.7a.27.27,0,0,0,.3.3h.3a.27.27,0,0,0,.3-.3V8h1v6.9A1.11,1.11,0,0,1,10.3,16H9.6a1.11,1.11,0,0,1-1.1-1.1V8Z"/><path id="Combined-Shape2" class="cls-2" d="M19.1,10h-1v1h1v3.9A1.11,1.11,0,0,1,18,16h-.8a1.11,1.11,0,0,1-1.1-1.1V9.1A1.11,1.11,0,0,1,17.2,8H18a1.11,1.11,0,0,1,1.1,1.1ZM17.4,9a.27.27,0,0,0-.3.3v5.4a.27.27,0,0,0,.3.3h.3a.27.27,0,0,0,.3-.3V9.3a.27.27,0,0,0-.3-.3Z"/><rect id="Rectangle-31" class="cls-3" x="12.3" y="8" width="1" height="8.1"/><path id="Combined-Shape3" class="cls-2" d="M4.9,12H6.6a.27.27,0,0,0,.3-.3V9.3A.27.27,0,0,0,6.6,9H4.9V8H6.8A1.11,1.11,0,0,1,7.9,9.1v2.8A1.11,1.11,0,0,1,6.8,13H4.9Z"/><path id="Combined-Shape4" class="cls-2" d="M12.3,15H14a.27.27,0,0,0,.3-.3V12.3A.27.27,0,0,0,14,12H12.3V11h1.9a1.11,1.11,0,0,1,1.1,1.1v2.8A1.11,1.11,0,0,1,14.2,16H12.3Z"/><path id="Combined-Shape5" class="cls-2" d="M12.3,11H14a.27.27,0,0,0,.3-.3V9.4a.27.27,0,0,0-.3-.3H12.3v-1h1.9a1.11,1.11,0,0,1,1.1,1.1V11a1.11,1.11,0,0,1-1.1,1.1H12.3Z"/><path id="Rectangle-44" class="cls-2" d="M4.6,12H7v1H4.6Z"/><rect id="Rectangle-45" class="cls-3" x="12" y="11" width="2.3" height="1"/><path id="Rectangle-46" class="cls-2" d="M17.7,11H19v1H17.7Z"/></g></g></g></svg>