<svg xmlns="http://www.w3.org/2000/svg" viewBox="0 0 24 24"><defs><style>.cls-1{fill:none;}.cls-2{fill:#b9cff0;fill-rule:evenodd;}</style></defs><title>资源 21</title><g id="图层_2" data-name="图层 2"><g id="图层_1-2" data-name="图层 1"><rect class="cls-1" width="24" height="24"/><g id="Page-1"><path id="Fill-1" class="cls-2" d="M4.9,3.89a2.29,2.29,0,0,0-2.5,1.9V10c0,1.1,1.1,1.9,2.5,1.9A2.29,2.29,0,0,0,7.4,10V8.69H5.3v1.5a.43.43,0,0,1-.4.4.43.43,0,0,1-.4-.4V5.69a.43.43,0,0,1,.4-.4.43.43,0,0,1,.4.4v1.8H7.5V5.79c0-1.1-1.2-1.9-2.6-1.9"/><path id="Fill-4" class="cls-2" d="M10.5,4.09H8.7l-1.2,7.6h2l.7-5.6.4,3h-.4l-.1,1.2h.7l.2,1.4h2l-1.2-7.6Z"/><path id="Fill-6" class="cls-2" d="M15.6,11.59h1.3v-1.5H15.6V4H13.5v7.6Z"/><path id="Fill-8" class="cls-2" d="M20.9,11.59v-1.5H19.6V4H17.5v7.6Z"/><path id="Fill-14" class="cls-2" d="M4.3,16.49v1.7a.53.53,0,0,1-.6.5H3.5v-5.1h.2a.53.53,0,0,1,.6.5Zm-.4-4.2H1.4v7.6H3.9a5.75,5.75,0,0,0,1.9-.3,1.15,1.15,0,0,0,.6-1.1v-4.7C6.4,12.19,3.9,12.29,3.9,12.29Z"/><path id="Fill-17" class="cls-2" d="M9.7,18.49a.3.3,0,1,1-.6,0v-6.2H7v6c0,1,1.1,1.8,2.4,1.8s2.4-.8,2.4-1.8v-6H9.7v6.2Z"/><path id="Fill-19" class="cls-2" d="M12.4,13.89h1.2V20h2.2v-6.1h1.3v-1.5H12.4Z"/><path id="Fill-21" class="cls-2" d="M17.5,12.29l1.5,4.9V20h2v-2.8l-1.5-4.9Z"/><path id="Fill-23" class="cls-2" d="M20.6,12.29l-.4,1.2,1,3.2,1.3-4.3-1.9-.1Z"/></g></g></g></svg>