<svg xmlns="http://www.w3.org/2000/svg" viewBox="0 0 24 24"><defs><style>.cls-1{fill:none;}.cls-2{fill:#b9cff0;}.cls-2,.cls-3{fill-rule:evenodd;}.cls-3{fill:#e5b362;}</style></defs><title>资源 24</title><g id="图层_2" data-name="图层 2"><g id="图层_1-2" data-name="图层 1"><rect class="cls-1" width="24" height="24"/><g id="守护先锋"><path id="Combined-Shape" class="cls-2" d="M18,15.4a6.65,6.65,0,0,0,.9-3.4,7.23,7.23,0,0,0-2-4.9l1.9-1.9A10,10,0,0,1,21.6,12,9.6,9.6,0,0,1,2.4,12,10,10,0,0,1,5.2,5.2L7.1,7.1a7,7,0,0,0-2,4.9A6.65,6.65,0,0,0,6,15.4L9.4,12l2.1-4.3v6.4L8,17.6a6.8,6.8,0,0,0,8,0l-3.5-3.5V7.7L14.6,12ZM17.6,4.2,15.7,6.1a6.77,6.77,0,0,0-7.4,0L6.4,4.2A9.14,9.14,0,0,1,12,2.4,9.59,9.59,0,0,1,17.6,4.2Z"/><path id="Combined-Shape1" class="cls-3" d="M17.6,4.2,15.7,6.1a6.77,6.77,0,0,0-7.4,0L6.4,4.2A9.14,9.14,0,0,1,12,2.4,9.59,9.59,0,0,1,17.6,4.2Z"/></g></g></g></svg>