<svg xmlns="http://www.w3.org/2000/svg" viewBox="0 0 24 24"><defs><style>.cls-1{fill:none;}.cls-2{fill:#e5b362;}</style></defs><title>资源 22</title><g id="图层_2" data-name="图层 2"><g id="图层_1-2" data-name="图层 1"><rect class="cls-1" width="24" height="24"/><g id="icon切图"><g id="artifact"><g id="Artifact_s" data-name="Artifact s"><path id="Combined-Shape" class="cls-2" d="M8.07,3.65l2.4,8.9a.6.6,0,0,1-.1.4l-1.6,1.6a.19.19,0,0,1-.3,0h0l-6.1-11v-.1h5.2C7.87,3.35,8,3.45,8.07,3.65Zm1.1-.3h12.3a.1.1,0,0,1,.1.1h0L19,8.05a.76.76,0,0,1-.4.2L9.87,6q-.15,0-.3-.3L9,3.45c0,.1.1-.1.2-.1Zm2.7,17.3-2.6-4.8c-.1-.1,0-.3.1-.5l6.5-6.6c.1-.1.2-.1.4-.1l2,.5c.1,0,.2.1.1.2h0l-6.2,11.1c-.1.2-.2.2-.3.2Zm-.3-8.9h0c-.2.1-.3,0-.3-.1l-1.2-4.2v-.1c0-.1.1-.2.2-.1l4.2,1.1h.1a.19.19,0,0,1,0,.3Z"/></g></g></g></g></g></svg>