<svg xmlns="http://www.w3.org/2000/svg" viewBox="0 0 24 24"><defs><style>.cls-1{fill:none;}.cls-2{fill:#98683d;}.cls-3{fill:#17212d;fill-opacity:0.6;}.cls-4{fill:#005b5f;}.cls-5{fill:#e5b362;}</style></defs><title>资源 27</title><g id="图层_2" data-name="图层 2"><g id="图层_1-2" data-name="图层 1"><rect class="cls-1" width="24" height="24"/><rect class="cls-2" x="2.4" y="2.4" width="19.2" height="19.2"/><rect class="cls-3" x="3.7" y="3.7" width="16.7" height="16.7"/><rect class="cls-4" x="4.3" y="4.3" width="15.4" height="15.4"/><rect class="cls-3" x="4.3" y="4.3" width="15.4" height="15.4"/><polygon class="cls-5" points="17.2 19.3 4.3 19.3 4.3 18.5 6.7 16.1 6.7 7.2 4.3 4.8 12.4 4.8 11.5 5.6 10.7 6.4 9.9 7.2 9.9 16.1 16.4 16.1 18.8 13.6 17.2 19.3"/><polygon class="cls-2" points="4.3 4.8 7.5 7.1 7.5 16.4 4.3 18.5 6.7 16.1 6.7 7.2 4.3 4.8"/><polygon class="cls-2" points="18.8 13.6 16.5 16.9 9.9 16.9 9.9 16.1 16.4 16.1 18.8 13.6"/></g></g></svg>