<svg xmlns="http://www.w3.org/2000/svg" viewBox="0 0 24 24"><defs><style>.cls-1{fill:none;}.cls-2{fill:#2994d6;}.cls-2,.cls-3,.cls-4{fill-rule:evenodd;}.cls-3{fill:#1f75bc;}.cls-4,.cls-5{fill:#b9cff0;}</style></defs><title>资源 17</title><g id="图层_2" data-name="图层 2"><g id="图层_1-2" data-name="图层 1"><rect class="cls-1" width="24" height="24"/><g id="Group"><path id="Combined-Shape" class="cls-2" d="M7.23,6.23a3.37,3.37,0,0,0,.5-1.7,3.37,3.37,0,0,0-.5-1.7,23.26,23.26,0,0,1,4.8-.4,27.28,27.28,0,0,1,5.3.5,16.32,16.32,0,0,1,4.3,1.8,20.12,20.12,0,0,1-2.2,9.7,4.44,4.44,0,0,0-.1-2,5.67,5.67,0,0,0-1.2-1.8l.8-.5a3.78,3.78,0,0,0-.8-.9l-.6-.3-1.7-2.3-2.1-1.1v.8a5.07,5.07,0,0,0-1.3-.2h-1.5l-1,.3h-.5l-1.5-.7-.5.5Zm-1.6,1.3h0l.2.7a2.21,2.21,0,0,0,.7,2.1,1.68,1.68,0,0,0,1.9.3,2.08,2.08,0,0,0,1.1,2.1,2.16,2.16,0,0,0,2.2,0c.2-.2.5-.4.7-.6a.76.76,0,0,1,.4.1h.5c.2.1.5.3.7.4a6.89,6.89,0,0,0,.8.3,1.42,1.42,0,0,0,.2.6,1.89,1.89,0,0,0,1.5.8h.3c1.1,0,1.5.5,1.6,1.1a3.36,3.36,0,0,1-.4,1.5,21,21,0,0,1-2.4,2.7c.1-1.2-.7-2.5-2.5-3.9-2.9-2.3-5.5-2.4-7.2-2.8a3.88,3.88,0,0,1-3-2.9,25.12,25.12,0,0,1-.4-2.7,3.06,3.06,0,0,0,2,.7A3.45,3.45,0,0,1,5.63,7.53Zm9,12.6a13.5,13.5,0,0,1-2.6,1.5,14.4,14.4,0,0,1-6.4-5.5c-.4-.8-.5-1.3-.3-1.6.4-.4.7-.3,1.4-.3a14,14,0,0,1,6.4,2.2c1.4,1,2.1,2,2.1,2.5A1.43,1.43,0,0,1,14.63,20.13Z"/><path id="Combined-Shape1" class="cls-3" d="M14.63,20.13a13.5,13.5,0,0,1-2.6,1.5,14.4,14.4,0,0,1-6.4-5.5c-.4-.8-.5-1.3-.3-1.6.4-.4.7-.3,1.4-.3a14,14,0,0,1,6.4,2.2c1.4,1,2.1,2,2.1,2.5A1.43,1.43,0,0,1,14.63,20.13Z"/><path id="Combined-Shape2" class="cls-4" d="M18,9.93l-1.2.7a1.45,1.45,0,0,1,.7.2,1.1,1.1,0,0,1,.4,1.1c-.1.7-.5,1.6-1.4,1.6a1.38,1.38,0,0,1-1.1-.6c-.1-.1-.1-.4-.1-.7-.3-.1-.6-.1-.8-.3s-.6-.3-1.1-.6c-.3,0-.5.1-.6,0a1.1,1.1,0,0,1-.6-.3,2.18,2.18,0,0,1-.5.8,1.38,1.38,0,0,1-1.7.3,1.72,1.72,0,0,1-.9-2.1l-.6-.1a1.53,1.53,0,0,1-1.6,0,1.43,1.43,0,0,1-.5-1.7l-.2-.6.6-.9.8.2.4-.4,1.3.6H10l1.1-.3h1.4a16.76,16.76,0,0,1,1.8.3v-.5l1.1.6L17,9.33v.3a1.27,1.27,0,0,1,.6.1C17.73,9.63,17.93,9.83,18,9.93ZM11.93,8l.6.7,2.2-.1-.3-1.1c-.2,0-.4-.1-.7-.1a2.77,2.77,0,0,1-.9-.1.91.91,0,0,0-.5.3C12.23,7.83,12,7.93,11.93,8Zm-.3-.3.8-.5-1.2-.4-1,.4a2.19,2.19,0,0,0,.5.3A2,2,0,0,0,11.63,7.73Z"/><circle id="Oval" class="cls-5" cx="4.53" cy="4.53" r="2.1"/></g></g></g></svg>