<?xml version="1.0" encoding="utf-8"?>
<!-- Generator: Adobe Illustrator 23.0.3, SVG Export Plug-In . SVG Version: 6.00 Build 0)  -->
<svg version="1.1" id="图层_1" xmlns="http://www.w3.org/2000/svg" xmlns:xlink="http://www.w3.org/1999/xlink" x="0px" y="0px"
	 viewBox="0 0 200 200" style="enable-background:new 0 0 200 200;" xml:space="preserve">
<style type="text/css">
	.st0{fill:#697081;}
</style>
<path class="st0" d="M159.3,74.5V53.7C159.3,24.1,132.7,0,100,0S40.7,24.1,40.7,53.7v20.8c-12.6,2.2-22.2,13.1-22.2,26.4v72.4
	c0,14.8,12,26.8,26.8,26.8h109.4c14.8,0,26.8-12,26.8-26.8v-72.4C181.5,87.6,171.9,76.7,159.3,74.5z M48.1,53.7
	c0-25.5,23.3-46.3,51.9-46.3s51.9,20.8,51.9,46.3v20.4H48.1V53.7z M174.1,173.2c0,10.7-8.7,19.4-19.4,19.4H45.3
	c-10.7,0-19.4-8.7-19.4-19.4v-72.4c0-10.7,8.7-19.4,19.4-19.4h109.4c10.7,0,19.4,8.7,19.4,19.4V173.2z"/>
<path class="st0" d="M100,103.7c-8.2,0-14.8,6.6-14.8,14.8v22.2c0,8.2,6.6,14.8,14.8,14.8s14.8-6.6,14.8-14.8v-22.2
	C114.8,110.3,108.2,103.7,100,103.7z M107.4,140.7c0,4.1-3.3,7.4-7.4,7.4s-7.4-3.3-7.4-7.4v-22.2c0-4.1,3.3-7.4,7.4-7.4
	s7.4,3.3,7.4,7.4V140.7z"/>
</svg>
