<svg xmlns="http://www.w3.org/2000/svg" xmlns:xlink="http://www.w3.org/1999/xlink" viewBox="0 0 106.92 23"><defs><linearGradient id="未命名的渐变_17" x1="5.21" y1="15.84" x2="24.32" y2="-2.98" gradientUnits="userSpaceOnUse"><stop offset="0" stop-color="#07f1b6"/><stop offset="1" stop-color="#3cc0fe"/></linearGradient><linearGradient id="未命名的渐变_17-2" x1="20.18" y1="20.73" x2="31.59" y2="12.29" xlink:href="#未命名的渐变_17"/><linearGradient id="未命名的渐变_8" x1="99.36" y1="6.91" x2="98.18" y2="16.53" gradientUnits="userSpaceOnUse"><stop offset="0" stop-color="#03fcb3"/><stop offset="1" stop-color="#3cc0fe"/></linearGradient><linearGradient id="未命名的渐变_8-2" x1="99.26" y1="4.6" x2="98.37" y2="11.86" xlink:href="#未命名的渐变_8"/><linearGradient id="未命名的渐变_8-3" x1="100.1" y1="10.37" x2="97.56" y2="31.1" xlink:href="#未命名的渐变_8"/><linearGradient id="未命名的渐变_8-4" x1="56.49" y1="4.64" x2="55.47" y2="13.03" xlink:href="#未命名的渐变_8"/><linearGradient id="未命名的渐变_8-5" x1="56.29" y1="9.72" x2="55.31" y2="17.78" xlink:href="#未命名的渐变_8"/><linearGradient id="未命名的渐变_8-6" x1="59.01" y1="8.3" x2="57.28" y2="22.48" xlink:href="#未命名的渐变_8"/><linearGradient id="未命名的渐变_8-7" x1="63.32" y1="8.29" x2="61.54" y2="22.86" xlink:href="#未命名的渐变_8"/><linearGradient id="未命名的渐变_8-8" x1="66" y1="3.8" x2="62.25" y2="34.47" xlink:href="#未命名的渐变_8"/><linearGradient id="未命名的渐变_8-9" x1="67.6" y1="8.34" x2="65.92" y2="22.02" xlink:href="#未命名的渐变_8"/><linearGradient id="未命名的渐变_8-10" x1="61.04" y1="3.38" x2="57.09" y2="35.67" xlink:href="#未命名的渐变_8"/><linearGradient id="未命名的渐变_8-11" x1="47.77" y1="3.12" x2="43.52" y2="37.77" xlink:href="#未命名的渐变_8"/><linearGradient id="未命名的渐变_8-12" x1="38.07" y1="9.31" x2="36.15" y2="24.99" xlink:href="#未命名的渐变_8"/><linearGradient id="未命名的渐变_8-13" x1="70.3" y1="3.54" x2="66.49" y2="34.67" xlink:href="#未命名的渐变_8"/><linearGradient id="未命名的渐变_8-14" x1="83.69" y1="3.75" x2="79.82" y2="35.33" xlink:href="#未命名的渐变_8"/></defs><title>logo</title><g id="图层_2" data-name="图层 2"><g id="图层_1-2" data-name="图层 1"><path d="M0,23H6.32c4-4.15,13.81-13.2,25.18-17.39A61.05,61.05,0,0,0,0,23Z" style="fill:#c39902"/><path d="M24.59,4.94s-5.11.37-13.37,4.41l4.93-4L13,0,.63,20.92C5.84,16.12,15.6,8.24,24.59,4.94Z" style="fill:url(#未命名的渐变_17)"/><path d="M26.57,9.67a47.45,47.45,0,0,0-9.92,7L20.37,23h6.2l-4.44-7.51L19.8,16.7A27.86,27.86,0,0,1,26.57,9.67Z" style="fill:url(#未命名的渐变_17-2)"/><polygon points="106.56 9.52 104.75 9.52 104.75 8.12 102.49 9.3 102.49 9.52 95.38 9.52 95.38 8.12 93.18 9.26 93.18 9.52 91.3 9.52 91.3 11.34 106.56 11.34 106.56 9.52" style="fill:url(#未命名的渐变_8)"/><polygon points="105.78 6.08 99.82 6.08 99.82 5.09 97.92 6.08 92.15 6.08 92.15 7.82 105.78 7.82 105.78 6.08" style="fill:url(#未命名的渐变_8-2)"/><polygon points="102.88 19.2 102.88 17.35 104.98 17.35 106.04 15.84 106.04 12.29 105.37 12.29 104.08 14.12 104.08 15.5 93.92 15.5 93.92 14.12 102.99 14.12 104.28 12.29 91.96 12.29 91.96 17.35 94.33 17.35 91.76 21.02 94.14 21.02 96.72 17.35 100.92 17.35 100.92 21.02 105.83 21.02 106.92 19.2 102.88 19.2" style="fill:url(#未命名的渐变_8-3)"/><polygon points="57.09 5.2 54.9 8.31 54.9 9.16 57.09 9.16 57.09 5.2" style="fill:url(#未命名的渐变_8-4)"/><rect x="54.9" y="10.28" width="2.19" height="3.81" style="fill:url(#未命名的渐变_8-5)"/><polygon points="59.42 9.16 57.82 9.16 57.82 16.13 59.42 13.86 59.42 9.16" style="fill:url(#未命名的渐变_8-6)"/><polygon points="62.17 16.35 63.63 14.28 63.63 9.16 62.17 9.16 62.17 16.35" style="fill:url(#未命名的渐变_8-7)"/><rect x="63.91" y="5.54" width="1.89" height="15.26" style="fill:url(#未命名的渐变_8-8)"/><polygon points="66.48 15.9 67.92 14.03 67.92 9.16 66.48 9.16 66.48 15.9" style="fill:url(#未命名的渐变_8-9)"/><polygon points="59.71 16.67 56.65 21.02 58.89 21.02 61.58 17.19 61.58 5.3 59.71 5.3 59.71 16.67" style="fill:url(#未命名的渐变_8-10)"/><path d="M57.09,15.23H54.9v2.41L53.8,19.2H47.48l3.82-5.45h0V10.28h-2V15l-2.12,3V7.42h4.56V5.61H39c-1,0-1.11-.52-1.11-.52L36.26,7.42h4.49V19.2H37.3c-1,0-1.12-.54-1.12-.54L34.53,21H54.4l2.69-3.82Zm-11.82,4H42.7V7.42h2.57Z" style="fill:url(#未命名的渐变_8-11)"/><polygon points="38.63 10.28 36.67 10.28 36.67 17.96 38.63 15.18 38.63 10.28" style="fill:url(#未命名的渐变_8-12)"/><rect x="68.2" y="5.3" width="1.87" height="15.5" style="fill:url(#未命名的渐变_8-13)"/><path d="M81.51,19.2V17.33H87l1-1.4V6.72h-.67L86,8.55v2.52H81.51V8.55h3.4l1.28-1.83H81.51V5.3h-2V6.72H73.18V17.33h6.37V21H90.66l1.28-1.82Zm0-6.28H86V15.5H81.51Zm-2,2.58H75.14V12.92h4.41Zm0-4.43H75.14V8.55h4.41Z" style="fill:url(#未命名的渐变_8-14)"/></g></g></svg>